<svg class="main-svg" xmlns="http://www.w3.org/2000/svg" xmlns:xlink="http://www.w3.org/1999/xlink" width="700" height="500" style="" viewBox="0 0 700 500"><rect x="0" y="0" width="700" height="500" style="fill: rgb(255, 255, 255); fill-opacity: 1;"/><defs id="defs-40ac54"><g class="clips"><clipPath id="clip40ac54xyplot" class="plotclip"><rect width="501" height="400"/></clipPath><clipPath class="axesclip" id="clip40ac54x"><rect x="50" y="0" width="501" height="500"/></clipPath><clipPath class="axesclip" id="clip40ac54y"><rect x="0" y="40" width="700" height="400"/></clipPath><clipPath class="axesclip" id="clip40ac54xy"><rect x="50" y="40" width="501" height="400"/></clipPath></g><g class="gradients"/><g class="patterns"/></defs><g class="bglayer"/><g class="layer-below"><g class="imagelayer"/><g class="shapelayer"/></g><g class="cartesianlayer"><g class="subplot xy"><g class="layer-subplot"><g class="shapelayer"/><g class="imagelayer"/></g><g class="gridlayer"><g class="x"/><g class="y"><path class="ygrid crisp" transform="translate(0,367.56)" d="M50,0h501" style="stroke: rgb(235, 240, 248); stroke-opacity: 1; stroke-width: 1px;"/><path class="ygrid crisp" transform="translate(0,315.12)" d="M50,0h501" style="stroke: rgb(235, 240, 248); stroke-opacity: 1; stroke-width: 1px;"/><path class="ygrid crisp" transform="translate(0,262.68)" d="M50,0h501" style="stroke: rgb(235, 240, 248); stroke-opacity: 1; stroke-width: 1px;"/><path class="ygrid crisp" transform="translate(0,210.24)" d="M50,0h501" style="stroke: rgb(235, 240, 248); stroke-opacity: 1; stroke-width: 1px;"/><path class="ygrid crisp" transform="translate(0,157.8)" d="M50,0h501" style="stroke: rgb(235, 240, 248); stroke-opacity: 1; stroke-width: 1px;"/><path class="ygrid crisp" transform="translate(0,105.36)" d="M50,0h501" style="stroke: rgb(235, 240, 248); stroke-opacity: 1; stroke-width: 1px;"/><path class="ygrid crisp" transform="translate(0,52.92)" d="M50,0h501" style="stroke: rgb(235, 240, 248); stroke-opacity: 1; stroke-width: 1px;"/></g></g><g class="zerolinelayer"><path class="yzl zl crisp" transform="translate(0,420)" d="M50,0h501" style="stroke: rgb(235, 240, 248); stroke-opacity: 1; stroke-width: 2px;"/></g><path class="xlines-below"/><path class="ylines-below"/><g class="overlines-below"/><g class="xaxislayer-below"/><g class="yaxislayer-below"/><g class="overaxes-below"/><g class="plot" transform="translate(50,40)" clip-path="url(#clip40ac54xyplot)"><g class="boxlayer mlayer"><g class="trace boxes" style="opacity: 1;"><path class="box" d="M17.13,380H26.95M17.13,380H26.95V380H17.13ZM22.04,380V380M22.04,380V338.69M19.59,380H24.5M19.59,338.69H24.5" style="vector-effect: non-scaling-stroke; stroke-width: 2px; stroke: rgb(99, 110, 250); stroke-opacity: 1; fill: rgb(99, 110, 250); fill-opacity: 0.5;"/><path class="box" d="M117.33,379H127.15M117.33,380H127.15V339.61H117.33ZM122.24,380V380M122.24,339.61V229.76M119.79,380H124.7M119.79,229.76H124.7" style="vector-effect: non-scaling-stroke; stroke-width: 2px; stroke: rgb(99, 110, 250); stroke-opacity: 1; fill: rgb(99, 110, 250); fill-opacity: 0.5;"/><path class="box" d="M217.53,379H227.35M217.53,380H227.35V305.26H217.53ZM222.44,380V380M222.44,305.26V113.69M219.99,380H224.9M219.99,113.69H224.9" style="vector-effect: non-scaling-stroke; stroke-width: 2px; stroke: rgb(99, 110, 250); stroke-opacity: 1; fill: rgb(99, 110, 250); fill-opacity: 0.5;"/><path class="box" d="M317.73,379H327.55M317.73,380H327.55V286.96H317.73ZM322.64,380V380M322.64,286.96V53.12M320.19,380H325.1M320.19,53.12H325.1" style="vector-effect: non-scaling-stroke; stroke-width: 2px; stroke: rgb(99, 110, 250); stroke-opacity: 1; fill: rgb(99, 110, 250); fill-opacity: 0.5;"/><path class="box" d="M417.93,379H427.75M417.93,380H427.75V277.17H417.93ZM422.84,380V380M422.84,277.17V20M420.39,380H425.3M420.39,20H425.3" style="vector-effect: non-scaling-stroke; stroke-width: 2px; stroke: rgb(99, 110, 250); stroke-opacity: 1; fill: rgb(99, 110, 250); fill-opacity: 0.5;"/></g><g class="trace boxes" style="opacity: 1;"><path class="box" d="M31.16,380H40.98M31.16,380H40.98V380H31.16ZM36.07,380V380M36.07,380V352.01M33.62,380H38.53M33.62,352.01H38.53" style="vector-effect: non-scaling-stroke; stroke-width: 2px; stroke: rgb(239, 85, 59); stroke-opacity: 1; fill: rgb(239, 85, 59); fill-opacity: 0.5;"/><path class="box" d="M131.36,379H141.18M131.36,380H141.18V352.18H131.36ZM136.27,380V380M136.27,352.18V253.67M133.82,380H138.73M133.82,253.67H138.73" style="vector-effect: non-scaling-stroke; stroke-width: 2px; stroke: rgb(239, 85, 59); stroke-opacity: 1; fill: rgb(239, 85, 59); fill-opacity: 0.5;"/><path class="box" d="M231.56,379H241.38M231.56,380H241.38V321.16H231.56ZM236.47,380V380M236.47,321.16V144.12M234.02,380H238.93M234.02,144.12H238.93" style="vector-effect: non-scaling-stroke; stroke-width: 2px; stroke: rgb(239, 85, 59); stroke-opacity: 1; fill: rgb(239, 85, 59); fill-opacity: 0.5;"/><path class="box" d="M331.76,379H341.58M331.76,380H341.58V304.22H331.76ZM336.67,380V380M336.67,304.22V87.8M334.22,380H339.13M334.22,87.8H339.13" style="vector-effect: non-scaling-stroke; stroke-width: 2px; stroke: rgb(239, 85, 59); stroke-opacity: 1; fill: rgb(239, 85, 59); fill-opacity: 0.5;"/><path class="box" d="M431.96,379H441.78M431.96,380H441.78V295.31H431.96ZM436.87,380V380M436.87,295.31V57.46M434.42,380H439.33M434.42,57.46H439.33" style="vector-effect: non-scaling-stroke; stroke-width: 2px; stroke: rgb(239, 85, 59); stroke-opacity: 1; fill: rgb(239, 85, 59); fill-opacity: 0.5;"/></g><g class="trace boxes" style="opacity: 1;"><path class="box" d="M45.19,380H55.01M45.19,380H55.01V380H45.19ZM50.1,380V380M50.1,380V359.03M47.65,380H52.55M47.65,359.03H52.55" style="vector-effect: non-scaling-stroke; stroke-width: 2px; stroke: rgb(0, 204, 150); stroke-opacity: 1; fill: rgb(0, 204, 150); fill-opacity: 0.5;"/><path class="box" d="M145.39,379H155.21M145.39,380H155.21V356.62H145.39ZM150.3,380V380M150.3,356.62V260.45M147.85,380H152.75M147.85,260.45H152.75" style="vector-effect: non-scaling-stroke; stroke-width: 2px; stroke: rgb(0, 204, 150); stroke-opacity: 1; fill: rgb(0, 204, 150); fill-opacity: 0.5;"/><path class="box" d="M245.59,379H255.41M245.59,380H255.41V328.53H245.59ZM250.5,380V380M250.5,328.53V158.01M248.05,380H252.95M248.05,158.01H252.95" style="vector-effect: non-scaling-stroke; stroke-width: 2px; stroke: rgb(0, 204, 150); stroke-opacity: 1; fill: rgb(0, 204, 150); fill-opacity: 0.5;"/><path class="box" d="M345.79,379H355.61M345.79,380H355.61V312.45H345.79ZM350.7,380V380M350.7,312.45V104.24M348.25,380H353.15M348.25,104.24H353.15" style="vector-effect: non-scaling-stroke; stroke-width: 2px; stroke: rgb(0, 204, 150); stroke-opacity: 1; fill: rgb(0, 204, 150); fill-opacity: 0.5;"/><path class="box" d="M445.99,379H455.81M445.99,380H455.81V304.12H445.99ZM450.9,380V380M450.9,304.12V75.73M448.45,380H453.35M448.45,75.73H453.35" style="vector-effect: non-scaling-stroke; stroke-width: 2px; stroke: rgb(0, 204, 150); stroke-opacity: 1; fill: rgb(0, 204, 150); fill-opacity: 0.5;"/></g><g class="trace boxes" style="opacity: 1;"><path class="box" d="M59.22,380H69.04M59.22,380H69.04V380H59.22ZM64.13,380V380M64.13,380V360.75M61.67,380H66.58M61.67,360.75H66.58" style="vector-effect: non-scaling-stroke; stroke-width: 2px; stroke: rgb(171, 99, 250); stroke-opacity: 1; fill: rgb(171, 99, 250); fill-opacity: 0.5;"/><path class="box" d="M159.42,379H169.24M159.42,380H169.24V356.59H159.42ZM164.33,380V380M164.33,356.59V256.96M161.87,380H166.78M161.87,256.96H166.78" style="vector-effect: non-scaling-stroke; stroke-width: 2px; stroke: rgb(171, 99, 250); stroke-opacity: 1; fill: rgb(171, 99, 250); fill-opacity: 0.5;"/><path class="box" d="M259.62,379H269.44M259.62,380H269.44V328.46H259.62ZM264.53,380V380M264.53,328.46V156.48M262.07,380H266.98M262.07,156.48H266.98" style="vector-effect: non-scaling-stroke; stroke-width: 2px; stroke: rgb(171, 99, 250); stroke-opacity: 1; fill: rgb(171, 99, 250); fill-opacity: 0.5;"/><path class="box" d="M359.82,379H369.64M359.82,380H369.64V312.8H359.82ZM364.73,380V380M364.73,312.8V104.09M362.27,380H367.18M362.27,104.09H367.18" style="vector-effect: non-scaling-stroke; stroke-width: 2px; stroke: rgb(171, 99, 250); stroke-opacity: 1; fill: rgb(171, 99, 250); fill-opacity: 0.5;"/><path class="box" d="M460.02,379H469.84M460.02,380H469.84V304.8H460.02ZM464.93,380V380M464.93,304.8V76.6M462.47,380H467.38M462.47,76.6H467.38" style="vector-effect: non-scaling-stroke; stroke-width: 2px; stroke: rgb(171, 99, 250); stroke-opacity: 1; fill: rgb(171, 99, 250); fill-opacity: 0.5;"/></g><g class="trace boxes" style="opacity: 1;"><path class="box" d="M73.25,380H83.07M73.25,380H83.07V380H73.25ZM78.16,380V380M78.16,380V357.4M75.7,380H80.61M75.7,357.4H80.61" style="vector-effect: non-scaling-stroke; stroke-width: 2px; stroke: rgb(255, 161, 90); stroke-opacity: 1; fill: rgb(255, 161, 90); fill-opacity: 0.5;"/><path class="box" d="M173.45,379H183.27M173.45,380H183.27V352.9H173.45ZM178.36,380V380M178.36,352.9V249.92M175.9,380H180.81M175.9,249.92H180.81" style="vector-effect: non-scaling-stroke; stroke-width: 2px; stroke: rgb(255, 161, 90); stroke-opacity: 1; fill: rgb(255, 161, 90); fill-opacity: 0.5;"/><path class="box" d="M273.65,379H283.47M273.65,380H283.47V322.42H273.65ZM278.56,380V380M278.56,322.42V145.76M276.1,380H281.01M276.1,145.76H281.01" style="vector-effect: non-scaling-stroke; stroke-width: 2px; stroke: rgb(255, 161, 90); stroke-opacity: 1; fill: rgb(255, 161, 90); fill-opacity: 0.5;"/><path class="box" d="M373.85,379H383.67M373.85,380H383.67V306.65H373.85ZM378.76,380V380M378.76,306.65V92.9M376.3,380H381.21M376.3,92.9H381.21" style="vector-effect: non-scaling-stroke; stroke-width: 2px; stroke: rgb(255, 161, 90); stroke-opacity: 1; fill: rgb(255, 161, 90); fill-opacity: 0.5;"/><path class="box" d="M474.05,379H483.87M474.05,380H483.87V298.66H474.05ZM478.96,380V380M478.96,298.66V65.31M476.5,380H481.41M476.5,65.31H481.41" style="vector-effect: non-scaling-stroke; stroke-width: 2px; stroke: rgb(255, 161, 90); stroke-opacity: 1; fill: rgb(255, 161, 90); fill-opacity: 0.5;"/></g></g></g><g class="overplot"/><path class="xlines-above crisp" d="M0,0" style="fill: none;"/><path class="ylines-above crisp" d="M0,0" style="fill: none;"/><g class="overlines-above"/><g class="xaxislayer-above"><g class="xtick"><text text-anchor="middle" x="0" y="457" transform="translate(100.1,0)" style="font-family: 'Open Sans', verdana, arial, sans-serif; font-size: 16px; fill: rgb(28, 28, 28); fill-opacity: 1; white-space: pre; opacity: 1;">1</text></g><g class="xtick"><text text-anchor="middle" x="0" y="457" style="font-family: 'Open Sans', verdana, arial, sans-serif; font-size: 16px; fill: rgb(28, 28, 28); fill-opacity: 1; white-space: pre; opacity: 1;" transform="translate(200.3,0)">2</text></g><g class="xtick"><text text-anchor="middle" x="0" y="457" style="font-family: 'Open Sans', verdana, arial, sans-serif; font-size: 16px; fill: rgb(28, 28, 28); fill-opacity: 1; white-space: pre; opacity: 1;" transform="translate(300.5,0)">3</text></g><g class="xtick"><text text-anchor="middle" x="0" y="457" style="font-family: 'Open Sans', verdana, arial, sans-serif; font-size: 16px; fill: rgb(28, 28, 28); fill-opacity: 1; white-space: pre; opacity: 1;" transform="translate(400.7,0)">4</text></g><g class="xtick"><text text-anchor="middle" x="0" y="457" style="font-family: 'Open Sans', verdana, arial, sans-serif; font-size: 16px; fill: rgb(28, 28, 28); fill-opacity: 1; white-space: pre; opacity: 1;" transform="translate(500.9,0)">5</text></g></g><g class="yaxislayer-above"><g class="ytick"><text text-anchor="end" x="49" y="5.6" transform="translate(0,420)" style="font-family: 'Open Sans', verdana, arial, sans-serif; font-size: 16px; fill: rgb(28, 28, 28); fill-opacity: 1; white-space: pre; opacity: 1;">0</text></g><g class="ytick"><text text-anchor="end" x="49" y="5.6" style="font-family: 'Open Sans', verdana, arial, sans-serif; font-size: 16px; fill: rgb(28, 28, 28); fill-opacity: 1; white-space: pre; opacity: 1;" transform="translate(0,367.56)">1</text></g><g class="ytick"><text text-anchor="end" x="49" y="5.6" style="font-family: 'Open Sans', verdana, arial, sans-serif; font-size: 16px; fill: rgb(28, 28, 28); fill-opacity: 1; white-space: pre; opacity: 1;" transform="translate(0,315.12)">2</text></g><g class="ytick"><text text-anchor="end" x="49" y="5.6" style="font-family: 'Open Sans', verdana, arial, sans-serif; font-size: 16px; fill: rgb(28, 28, 28); fill-opacity: 1; white-space: pre; opacity: 1;" transform="translate(0,262.68)">3</text></g><g class="ytick"><text text-anchor="end" x="49" y="5.6" style="font-family: 'Open Sans', verdana, arial, sans-serif; font-size: 16px; fill: rgb(28, 28, 28); fill-opacity: 1; white-space: pre; opacity: 1;" transform="translate(0,210.24)">4</text></g><g class="ytick"><text text-anchor="end" x="49" y="5.6" style="font-family: 'Open Sans', verdana, arial, sans-serif; font-size: 16px; fill: rgb(28, 28, 28); fill-opacity: 1; white-space: pre; opacity: 1;" transform="translate(0,157.8)">5</text></g><g class="ytick"><text text-anchor="end" x="49" y="5.6" style="font-family: 'Open Sans', verdana, arial, sans-serif; font-size: 16px; fill: rgb(28, 28, 28); fill-opacity: 1; white-space: pre; opacity: 1;" transform="translate(0,105.36)">6</text></g><g class="ytick"><text text-anchor="end" x="49" y="5.6" style="font-family: 'Open Sans', verdana, arial, sans-serif; font-size: 16px; fill: rgb(28, 28, 28); fill-opacity: 1; white-space: pre; opacity: 1;" transform="translate(0,52.92)">7</text></g></g><g class="overaxes-above"/></g></g><g class="polarlayer"/><g class="smithlayer"/><g class="ternarylayer"/><g class="geolayer"/><g class="funnelarealayer"/><g class="pielayer"/><g class="iciclelayer"/><g class="treemaplayer"/><g class="sunburstlayer"/><g class="glimages"/><defs id="topdefs-40ac54"><g class="clips"/><clipPath id="legend40ac54"><rect width="127" height="154" x="0" y="0"/></clipPath></defs><g class="layer-above"><g class="imagelayer"/><g class="shapelayer"/></g><g class="infolayer"><g class="legend" pointer-events="all" transform="translate(561.02,40)"><rect class="bg" shape-rendering="crispEdges" style="stroke: rgb(68, 68, 68); stroke-opacity: 1; fill: rgb(255, 255, 255); fill-opacity: 1; stroke-width: 0px;" width="127" height="154" x="0" y="0"/><g class="scrollbox" transform="" clip-path="url(#legend40ac54)"><text class="legendtitletext" text-anchor="start" x="2" y="24.7" style="font-family: 'Open Sans', verdana, arial, sans-serif; font-size: 19px; fill: rgb(28, 28, 28); fill-opacity: 1; white-space: pre;">Sizing coef. (-)</text><g class="groups" transform=""><g class="traces" transform="translate(0,41.6)" style="opacity: 1;"><text class="legendtext" text-anchor="start" x="40" y="6.24" style="font-family: 'Open Sans', verdana, arial, sans-serif; font-size: 16px; fill: rgb(28, 28, 28); fill-opacity: 1; white-space: pre;">1.0</text><g class="layers" style="opacity: 1;"><g class="legendfill"/><g class="legendlines"/><g class="legendsymbols"><g class="legendpoints"><path class="legendbox" d="M6,6H-6V-6H6Z" transform="translate(20,0)" style="stroke-width: 2px; fill: rgb(99, 110, 250); fill-opacity: 0.5; stroke: rgb(99, 110, 250); stroke-opacity: 1;"/></g></g></g><rect class="legendtoggle" x="0" y="-11.9" width="62.34375" height="23.8" style="fill: rgb(0, 0, 0); fill-opacity: 0;"/></g></g><g class="groups" transform=""><g class="traces" transform="translate(0,65.4)" style="opacity: 1;"><text class="legendtext" text-anchor="start" x="40" y="6.24" style="font-family: 'Open Sans', verdana, arial, sans-serif; font-size: 16px; fill: rgb(28, 28, 28); fill-opacity: 1; white-space: pre;">1.1</text><g class="layers" style="opacity: 1;"><g class="legendfill"/><g class="legendlines"/><g class="legendsymbols"><g class="legendpoints"><path class="legendbox" d="M6,6H-6V-6H6Z" transform="translate(20,0)" style="stroke-width: 2px; fill: rgb(239, 85, 59); fill-opacity: 0.5; stroke: rgb(239, 85, 59); stroke-opacity: 1;"/></g></g></g><rect class="legendtoggle" x="0" y="-11.9" width="62.34375" height="23.8" style="fill: rgb(0, 0, 0); fill-opacity: 0;"/></g></g><g class="groups" transform=""><g class="traces" transform="translate(0,89.2)" style="opacity: 1;"><text class="legendtext" text-anchor="start" x="40" y="6.24" style="font-family: 'Open Sans', verdana, arial, sans-serif; font-size: 16px; fill: rgb(28, 28, 28); fill-opacity: 1; white-space: pre;">1.2</text><g class="layers" style="opacity: 1;"><g class="legendfill"/><g class="legendlines"/><g class="legendsymbols"><g class="legendpoints"><path class="legendbox" d="M6,6H-6V-6H6Z" transform="translate(20,0)" style="stroke-width: 2px; fill: rgb(0, 204, 150); fill-opacity: 0.5; stroke: rgb(0, 204, 150); stroke-opacity: 1;"/></g></g></g><rect class="legendtoggle" x="0" y="-11.9" width="62.34375" height="23.8" style="fill: rgb(0, 0, 0); fill-opacity: 0;"/></g></g><g class="groups" transform=""><g class="traces" transform="translate(0,113.00000000000001)" style="opacity: 1;"><text class="legendtext" text-anchor="start" x="40" y="6.24" style="font-family: 'Open Sans', verdana, arial, sans-serif; font-size: 16px; fill: rgb(28, 28, 28); fill-opacity: 1; white-space: pre;">1.3</text><g class="layers" style="opacity: 1;"><g class="legendfill"/><g class="legendlines"/><g class="legendsymbols"><g class="legendpoints"><path class="legendbox" d="M6,6H-6V-6H6Z" transform="translate(20,0)" style="stroke-width: 2px; fill: rgb(171, 99, 250); fill-opacity: 0.5; stroke: rgb(171, 99, 250); stroke-opacity: 1;"/></g></g></g><rect class="legendtoggle" x="0" y="-11.9" width="62.34375" height="23.8" style="fill: rgb(0, 0, 0); fill-opacity: 0;"/></g></g><g class="groups" transform=""><g class="traces" transform="translate(0,136.8)" style="opacity: 1;"><text class="legendtext" text-anchor="start" x="40" y="6.24" style="font-family: 'Open Sans', verdana, arial, sans-serif; font-size: 16px; fill: rgb(28, 28, 28); fill-opacity: 1; white-space: pre;">1.4</text><g class="layers" style="opacity: 1;"><g class="legendfill"/><g class="legendlines"/><g class="legendsymbols"><g class="legendpoints"><path class="legendbox" d="M6,6H-6V-6H6Z" transform="translate(20,0)" style="stroke-width: 2px; fill: rgb(255, 161, 90); fill-opacity: 0.5; stroke: rgb(255, 161, 90); stroke-opacity: 1;"/></g></g></g><rect class="legendtoggle" x="0" y="-11.9" width="62.34375" height="23.8" style="fill: rgb(0, 0, 0); fill-opacity: 0;"/></g></g></g><rect class="scrollbar" rx="20" ry="3" width="0" height="0" style="fill: rgb(128, 139, 164); fill-opacity: 1;" x="0" y="0"/></g><g class="g-gtitle"/><g class="g-xtitle"><text class="xtitle" x="300.5" y="488.3" text-anchor="middle" style="font-family: 'Open Sans', verdana, arial, sans-serif; font-size: 19px; fill: rgb(28, 28, 28); opacity: 1; font-weight: normal; white-space: pre;">Day of the week</text></g><g class="g-ytitle" transform="translate(5.2060546875,0)"><text class="ytitle" transform="rotate(-90,11.793750000000003,240)" x="11.793750000000003" y="240" text-anchor="middle" style="font-family: 'Open Sans', verdana, arial, sans-serif; font-size: 19px; fill: rgb(28, 28, 28); opacity: 1; font-weight: normal; white-space: pre;">Degree-hour above tolerable (K.h)</text></g></g></svg>