<svg class="main-svg" xmlns="http://www.w3.org/2000/svg" xmlns:xlink="http://www.w3.org/1999/xlink" width="700" height="500" style="" viewBox="0 0 700 500"><rect x="0" y="0" width="700" height="500" style="fill: rgb(255, 255, 255); fill-opacity: 1;"/><defs id="defs-55d52f"><g class="clips"><clipPath id="clip55d52fxyplot" class="plotclip"><rect width="419" height="400"/></clipPath><clipPath class="axesclip" id="clip55d52fx"><rect x="59" y="0" width="419" height="500"/></clipPath><clipPath class="axesclip" id="clip55d52fy"><rect x="0" y="40" width="700" height="400"/></clipPath><clipPath class="axesclip" id="clip55d52fxy"><rect x="59" y="40" width="419" height="400"/></clipPath></g><g class="gradients"/><g class="patterns"/></defs><g class="bglayer"/><g class="layer-below"><g class="imagelayer"/><g class="shapelayer"/></g><g class="cartesianlayer"><g class="subplot xy"><g class="layer-subplot"><g class="shapelayer"/><g class="imagelayer"/></g><g class="gridlayer"><g class="x"/><g class="y"><path class="ygrid crisp" transform="translate(0,364.63)" d="M59,0h419" style="stroke: rgb(235, 240, 248); stroke-opacity: 1; stroke-width: 1px;"/><path class="ygrid crisp" transform="translate(0,309.26)" d="M59,0h419" style="stroke: rgb(235, 240, 248); stroke-opacity: 1; stroke-width: 1px;"/><path class="ygrid crisp" transform="translate(0,253.9)" d="M59,0h419" style="stroke: rgb(235, 240, 248); stroke-opacity: 1; stroke-width: 1px;"/><path class="ygrid crisp" transform="translate(0,198.53)" d="M59,0h419" style="stroke: rgb(235, 240, 248); stroke-opacity: 1; stroke-width: 1px;"/><path class="ygrid crisp" transform="translate(0,143.16)" d="M59,0h419" style="stroke: rgb(235, 240, 248); stroke-opacity: 1; stroke-width: 1px;"/><path class="ygrid crisp" transform="translate(0,87.78999999999999)" d="M59,0h419" style="stroke: rgb(235, 240, 248); stroke-opacity: 1; stroke-width: 1px;"/></g></g><g class="zerolinelayer"><path class="yzl zl crisp" transform="translate(0,420)" d="M59,0h419" style="stroke: rgb(235, 240, 248); stroke-opacity: 1; stroke-width: 2px;"/></g><path class="xlines-below"/><path class="ylines-below"/><g class="overlines-below"/><g class="xaxislayer-below"/><g class="yaxislayer-below"/><g class="overaxes-below"/><g class="plot" transform="translate(59,40)" clip-path="url(#clip55d52fxyplot)"><g class="boxlayer mlayer"><g class="trace boxes" style="opacity: 1;"><path class="box" d="M14.77,380H25.04M14.77,380H25.04V380H14.77ZM19.9,380V380M19.9,380V371.28M17.34,380H22.47M17.34,371.28H22.47" style="vector-effect: non-scaling-stroke; stroke-width: 2px; stroke: rgb(99, 110, 250); stroke-opacity: 1; fill: rgb(99, 110, 250); fill-opacity: 0.5;"/><path class="box" d="M98.57,379H108.84M98.57,380H108.84V371.47H98.57ZM103.7,380V380M103.7,371.47V348.27M101.14,380H106.27M101.14,348.27H106.27" style="vector-effect: non-scaling-stroke; stroke-width: 2px; stroke: rgb(99, 110, 250); stroke-opacity: 1; fill: rgb(99, 110, 250); fill-opacity: 0.5;"/><path class="box" d="M182.37,379H192.64M182.37,380H192.64V364.22H182.37ZM187.5,380V380M187.5,364.22V323.77M184.94,380H190.07M184.94,323.77H190.07" style="vector-effect: non-scaling-stroke; stroke-width: 2px; stroke: rgb(99, 110, 250); stroke-opacity: 1; fill: rgb(99, 110, 250); fill-opacity: 0.5;"/><path class="box" d="M266.17,379H276.44M266.17,380H276.44V360.35H266.17ZM271.3,380V380M271.3,360.35V310.98M268.74,380H273.87M268.74,310.98H273.87" style="vector-effect: non-scaling-stroke; stroke-width: 2px; stroke: rgb(99, 110, 250); stroke-opacity: 1; fill: rgb(99, 110, 250); fill-opacity: 0.5;"/><path class="box" d="M349.97,379H360.24M349.97,380H360.24V358.29H349.97ZM355.1,380V380M355.1,358.29V303.98M352.54,380H357.67M352.54,303.98H357.67" style="vector-effect: non-scaling-stroke; stroke-width: 2px; stroke: rgb(99, 110, 250); stroke-opacity: 1; fill: rgb(99, 110, 250); fill-opacity: 0.5;"/></g><g class="trace boxes" style="opacity: 1;"><path class="box" d="M29.43,380H39.7M29.43,380H39.7V379.37H29.43ZM34.57,380V380M34.57,379.37V350.33M32,380H37.13M32,350.33H37.13" style="vector-effect: non-scaling-stroke; stroke-width: 2px; stroke: rgb(239, 85, 59); stroke-opacity: 1; fill: rgb(239, 85, 59); fill-opacity: 0.5;"/><path class="box" d="M113.23,379H123.5M113.23,380H123.5V352.97H113.23ZM118.37,380V380M118.37,352.97V319.42M115.8,380H120.93M115.8,319.42H120.93" style="vector-effect: non-scaling-stroke; stroke-width: 2px; stroke: rgb(239, 85, 59); stroke-opacity: 1; fill: rgb(239, 85, 59); fill-opacity: 0.5;"/><path class="box" d="M197.03,379H207.3M197.03,380H207.3V336.39H197.03ZM202.17,380V380M202.17,336.39V286.96M199.6,380H204.73M199.6,286.96H204.73" style="vector-effect: non-scaling-stroke; stroke-width: 2px; stroke: rgb(239, 85, 59); stroke-opacity: 1; fill: rgb(239, 85, 59); fill-opacity: 0.5;"/><path class="box" d="M280.83,376.81H291.1M280.83,380H291.1V325.27H280.83ZM285.97,380V380M285.97,325.27V269.07M283.4,380H288.53M283.4,269.07H288.53" style="vector-effect: non-scaling-stroke; stroke-width: 2px; stroke: rgb(239, 85, 59); stroke-opacity: 1; fill: rgb(239, 85, 59); fill-opacity: 0.5;"/><path class="box" d="M364.63,375.66H374.9M364.63,380H374.9V319.29H364.63ZM369.77,380V380M369.77,319.29V256.68M367.2,380H372.33M367.2,256.68H372.33" style="vector-effect: non-scaling-stroke; stroke-width: 2px; stroke: rgb(239, 85, 59); stroke-opacity: 1; fill: rgb(239, 85, 59); fill-opacity: 0.5;"/></g><g class="trace boxes" style="opacity: 1;"><path class="box" d="M44.1,379H54.37M44.1,380H54.37V369.92H44.1ZM49.23,380V380M49.23,369.92V319.03M46.67,380H51.8M46.67,319.03H51.8" style="vector-effect: non-scaling-stroke; stroke-width: 2px; stroke: rgb(0, 204, 150); stroke-opacity: 1; fill: rgb(0, 204, 150); fill-opacity: 0.5;"/><path class="box" d="M127.9,372.9H138.17M127.9,380H138.17V322.49H127.9ZM133.03,380V380M133.03,322.49V273.94M130.47,380H135.6M130.47,273.94H135.6" style="vector-effect: non-scaling-stroke; stroke-width: 2px; stroke: rgb(0, 204, 150); stroke-opacity: 1; fill: rgb(0, 204, 150); fill-opacity: 0.5;"/><path class="box" d="M211.7,367.64H221.97M211.7,380H221.97V287.41H211.7ZM216.83,380V380M216.83,287.41V214.21M214.27,380H219.4M214.27,214.21H219.4" style="vector-effect: non-scaling-stroke; stroke-width: 2px; stroke: rgb(0, 204, 150); stroke-opacity: 1; fill: rgb(0, 204, 150); fill-opacity: 0.5;"/><path class="box" d="M295.5,364.76H305.77M295.5,379.62H305.77V269.94H295.5ZM300.63,379.62V380M300.63,269.94V177.09M298.07,380H303.2M298.07,177.09H303.2" style="vector-effect: non-scaling-stroke; stroke-width: 2px; stroke: rgb(0, 204, 150); stroke-opacity: 1; fill: rgb(0, 204, 150); fill-opacity: 0.5;"/><path class="box" d="M379.3,358.92H389.57M379.3,378.46H389.57V259.99H379.3ZM384.43,378.46V380M384.43,259.99V156.5M381.87,380H387M381.87,156.5H387" style="vector-effect: non-scaling-stroke; stroke-width: 2px; stroke: rgb(0, 204, 150); stroke-opacity: 1; fill: rgb(0, 204, 150); fill-opacity: 0.5;"/></g><g class="trace boxes" style="opacity: 1;"><path class="box" d="M58.76,376.72H69.03M58.76,380H69.03V350.98H58.76ZM63.9,380V380M63.9,350.98V277.05M61.33,380H66.46M61.33,277.05H66.46" style="vector-effect: non-scaling-stroke; stroke-width: 2px; stroke: rgb(171, 99, 250); stroke-opacity: 1; fill: rgb(171, 99, 250); fill-opacity: 0.5;"/><path class="box" d="M142.56,356.75H152.83M142.56,379.83H152.83V263.45H142.56ZM147.7,379.83V380M147.7,263.45V183.2M145.13,380H150.26M145.13,183.2H150.26" style="vector-effect: non-scaling-stroke; stroke-width: 2px; stroke: rgb(171, 99, 250); stroke-opacity: 1; fill: rgb(171, 99, 250); fill-opacity: 0.5;"/><path class="box" d="M226.36,324.62H236.63M226.36,370.56H236.63V216.44H226.36ZM231.5,370.56V380M231.5,216.44V94.19M228.93,380H234.06M228.93,94.19H234.06" style="vector-effect: non-scaling-stroke; stroke-width: 2px; stroke: rgb(171, 99, 250); stroke-opacity: 1; fill: rgb(171, 99, 250); fill-opacity: 0.5;"/><path class="box" d="M310.16,277.33H320.43M310.16,366.92H320.43V183.13H310.16ZM315.3,366.92V380M315.3,183.13V46.13M312.73,380H317.86M312.73,46.13H317.86" style="vector-effect: non-scaling-stroke; stroke-width: 2px; stroke: rgb(171, 99, 250); stroke-opacity: 1; fill: rgb(171, 99, 250); fill-opacity: 0.5;"/><path class="box" d="M393.96,252H404.23M393.96,352.06H404.23V161.92H393.96ZM399.1,352.06V380M399.1,161.92V20M396.53,380H401.66M396.53,20H401.66" style="vector-effect: non-scaling-stroke; stroke-width: 2px; stroke: rgb(171, 99, 250); stroke-opacity: 1; fill: rgb(171, 99, 250); fill-opacity: 0.5;"/></g></g></g><g class="overplot"/><path class="xlines-above crisp" d="M0,0" style="fill: none;"/><path class="ylines-above crisp" d="M0,0" style="fill: none;"/><g class="overlines-above"/><g class="xaxislayer-above"><g class="xtick"><text text-anchor="middle" x="0" y="457" transform="translate(100.9,0)" style="font-family: 'Open Sans', verdana, arial, sans-serif; font-size: 16px; fill: rgb(28, 28, 28); fill-opacity: 1; white-space: pre; opacity: 1;">1</text></g><g class="xtick"><text text-anchor="middle" x="0" y="457" style="font-family: 'Open Sans', verdana, arial, sans-serif; font-size: 16px; fill: rgb(28, 28, 28); fill-opacity: 1; white-space: pre; opacity: 1;" transform="translate(184.7,0)">2</text></g><g class="xtick"><text text-anchor="middle" x="0" y="457" style="font-family: 'Open Sans', verdana, arial, sans-serif; font-size: 16px; fill: rgb(28, 28, 28); fill-opacity: 1; white-space: pre; opacity: 1;" transform="translate(268.5,0)">3</text></g><g class="xtick"><text text-anchor="middle" x="0" y="457" style="font-family: 'Open Sans', verdana, arial, sans-serif; font-size: 16px; fill: rgb(28, 28, 28); fill-opacity: 1; white-space: pre; opacity: 1;" transform="translate(352.3,0)">4</text></g><g class="xtick"><text text-anchor="middle" x="0" y="457" style="font-family: 'Open Sans', verdana, arial, sans-serif; font-size: 16px; fill: rgb(28, 28, 28); fill-opacity: 1; white-space: pre; opacity: 1;" transform="translate(436.1,0)">5</text></g></g><g class="yaxislayer-above"><g class="ytick"><text text-anchor="end" x="58" y="5.6" transform="translate(0,420)" style="font-family: 'Open Sans', verdana, arial, sans-serif; font-size: 16px; fill: rgb(28, 28, 28); fill-opacity: 1; white-space: pre; opacity: 1;">0</text></g><g class="ytick"><text text-anchor="end" x="58" y="5.6" style="font-family: 'Open Sans', verdana, arial, sans-serif; font-size: 16px; fill: rgb(28, 28, 28); fill-opacity: 1; white-space: pre; opacity: 1;" transform="translate(0,364.63)">5</text></g><g class="ytick"><text text-anchor="end" x="58" y="5.6" style="font-family: 'Open Sans', verdana, arial, sans-serif; font-size: 16px; fill: rgb(28, 28, 28); fill-opacity: 1; white-space: pre; opacity: 1;" transform="translate(0,309.26)">10</text></g><g class="ytick"><text text-anchor="end" x="58" y="5.6" style="font-family: 'Open Sans', verdana, arial, sans-serif; font-size: 16px; fill: rgb(28, 28, 28); fill-opacity: 1; white-space: pre; opacity: 1;" transform="translate(0,253.9)">15</text></g><g class="ytick"><text text-anchor="end" x="58" y="5.6" style="font-family: 'Open Sans', verdana, arial, sans-serif; font-size: 16px; fill: rgb(28, 28, 28); fill-opacity: 1; white-space: pre; opacity: 1;" transform="translate(0,198.53)">20</text></g><g class="ytick"><text text-anchor="end" x="58" y="5.6" style="font-family: 'Open Sans', verdana, arial, sans-serif; font-size: 16px; fill: rgb(28, 28, 28); fill-opacity: 1; white-space: pre; opacity: 1;" transform="translate(0,143.16)">25</text></g><g class="ytick"><text text-anchor="end" x="58" y="5.6" style="font-family: 'Open Sans', verdana, arial, sans-serif; font-size: 16px; fill: rgb(28, 28, 28); fill-opacity: 1; white-space: pre; opacity: 1;" transform="translate(0,87.78999999999999)">30</text></g></g><g class="overaxes-above"/></g></g><g class="polarlayer"/><g class="smithlayer"/><g class="ternarylayer"/><g class="geolayer"/><g class="funnelarealayer"/><g class="pielayer"/><g class="iciclelayer"/><g class="treemaplayer"/><g class="sunburstlayer"/><g class="glimages"/><defs id="topdefs-55d52f"><g class="clips"/><clipPath id="legend55d52f"><rect width="202" height="130" x="0" y="0"/></clipPath></defs><g class="layer-above"><g class="imagelayer"/><g class="shapelayer"/></g><g class="infolayer"><g class="legend" pointer-events="all" transform="translate(486.38,40)"><rect class="bg" shape-rendering="crispEdges" style="stroke: rgb(68, 68, 68); stroke-opacity: 1; fill: rgb(255, 255, 255); fill-opacity: 1; stroke-width: 0px;" width="202" height="130" x="0" y="0"/><g class="scrollbox" transform="" clip-path="url(#legend55d52f)"><text class="legendtitletext" text-anchor="start" x="2" y="24.7" style="font-family: 'Open Sans', verdana, arial, sans-serif; font-size: 19px; fill: rgb(28, 28, 28); fill-opacity: 1; white-space: pre;">Supply temperature (C)</text><g class="groups" transform=""><g class="traces" transform="translate(0,41.6)" style="opacity: 1;"><text class="legendtext" text-anchor="start" x="40" y="6.24" style="font-family: 'Open Sans', verdana, arial, sans-serif; font-size: 16px; fill: rgb(28, 28, 28); fill-opacity: 1; white-space: pre;">16</text><g class="layers" style="opacity: 1;"><g class="legendfill"/><g class="legendlines"/><g class="legendsymbols"><g class="legendpoints"><path class="legendbox" d="M6,6H-6V-6H6Z" transform="translate(20,0)" style="stroke-width: 2px; fill: rgb(99, 110, 250); fill-opacity: 0.5; stroke: rgb(99, 110, 250); stroke-opacity: 1;"/></g></g></g><rect class="legendtoggle" x="0" y="-11.9" width="57.90625" height="23.8" style="fill: rgb(0, 0, 0); fill-opacity: 0;"/></g></g><g class="groups" transform=""><g class="traces" transform="translate(0,65.4)" style="opacity: 1;"><text class="legendtext" text-anchor="start" x="40" y="6.24" style="font-family: 'Open Sans', verdana, arial, sans-serif; font-size: 16px; fill: rgb(28, 28, 28); fill-opacity: 1; white-space: pre;">18</text><g class="layers" style="opacity: 1;"><g class="legendfill"/><g class="legendlines"/><g class="legendsymbols"><g class="legendpoints"><path class="legendbox" d="M6,6H-6V-6H6Z" transform="translate(20,0)" style="stroke-width: 2px; fill: rgb(239, 85, 59); fill-opacity: 0.5; stroke: rgb(239, 85, 59); stroke-opacity: 1;"/></g></g></g><rect class="legendtoggle" x="0" y="-11.9" width="57.90625" height="23.8" style="fill: rgb(0, 0, 0); fill-opacity: 0;"/></g></g><g class="groups" transform=""><g class="traces" transform="translate(0,89.2)" style="opacity: 1;"><text class="legendtext" text-anchor="start" x="40" y="6.24" style="font-family: 'Open Sans', verdana, arial, sans-serif; font-size: 16px; fill: rgb(28, 28, 28); fill-opacity: 1; white-space: pre;">20</text><g class="layers" style="opacity: 1;"><g class="legendfill"/><g class="legendlines"/><g class="legendsymbols"><g class="legendpoints"><path class="legendbox" d="M6,6H-6V-6H6Z" transform="translate(20,0)" style="stroke-width: 2px; fill: rgb(0, 204, 150); fill-opacity: 0.5; stroke: rgb(0, 204, 150); stroke-opacity: 1;"/></g></g></g><rect class="legendtoggle" x="0" y="-11.9" width="57.90625" height="23.8" style="fill: rgb(0, 0, 0); fill-opacity: 0;"/></g></g><g class="groups" transform=""><g class="traces" transform="translate(0,113.00000000000001)" style="opacity: 1;"><text class="legendtext" text-anchor="start" x="40" y="6.24" style="font-family: 'Open Sans', verdana, arial, sans-serif; font-size: 16px; fill: rgb(28, 28, 28); fill-opacity: 1; white-space: pre;">22</text><g class="layers" style="opacity: 1;"><g class="legendfill"/><g class="legendlines"/><g class="legendsymbols"><g class="legendpoints"><path class="legendbox" d="M6,6H-6V-6H6Z" transform="translate(20,0)" style="stroke-width: 2px; fill: rgb(171, 99, 250); fill-opacity: 0.5; stroke: rgb(171, 99, 250); stroke-opacity: 1;"/></g></g></g><rect class="legendtoggle" x="0" y="-11.9" width="57.90625" height="23.8" style="fill: rgb(0, 0, 0); fill-opacity: 0;"/></g></g></g><rect class="scrollbar" rx="20" ry="3" width="0" height="0" style="fill: rgb(128, 139, 164); fill-opacity: 1;" x="0" y="0"/></g><g class="g-gtitle"/><g class="g-xtitle"><text class="xtitle" x="268.5" y="488.3" text-anchor="middle" style="font-family: 'Open Sans', verdana, arial, sans-serif; font-size: 19px; fill: rgb(28, 28, 28); opacity: 1; font-weight: normal; white-space: pre;">Day of the week</text></g><g class="g-ytitle" transform="translate(5.0966796875,0)"><text class="ytitle" transform="rotate(-90,11.903125000000003,240)" x="11.903125000000003" y="240" text-anchor="middle" style="font-family: 'Open Sans', verdana, arial, sans-serif; font-size: 19px; fill: rgb(28, 28, 28); opacity: 1; font-weight: normal; white-space: pre;">Degree-hour above tolerable (K.h)</text></g></g></svg>