<svg class="main-svg" xmlns="http://www.w3.org/2000/svg" xmlns:xlink="http://www.w3.org/1999/xlink" width="700" height="500" style="" viewBox="0 0 700 500"><rect x="0" y="0" width="700" height="500" style="fill: rgb(255, 255, 255); fill-opacity: 1;"/><defs id="defs-cfecb4"><g class="clips"><clipPath id="clipcfecb4xyplot" class="plotclip"><rect width="580" height="400"/></clipPath><clipPath class="axesclip" id="clipcfecb4x"><rect x="100" y="0" width="580" height="500"/></clipPath><clipPath class="axesclip" id="clipcfecb4y"><rect x="0" y="40" width="700" height="400"/></clipPath><clipPath class="axesclip" id="clipcfecb4xy"><rect x="100" y="40" width="580" height="400"/></clipPath></g><g class="gradients"/><g class="patterns"/></defs><g class="bglayer"/><g class="layer-below"><g class="imagelayer"/><g class="shapelayer"/></g><g class="cartesianlayer"><g class="subplot xy"><g class="layer-subplot"><g class="shapelayer"/><g class="imagelayer"/></g><g class="gridlayer"><g class="x"><path class="xgrid crisp" transform="translate(193.76,0)" d="M0,40v400" style="stroke: rgb(235, 240, 248); stroke-opacity: 1; stroke-width: 1px;"/><path class="xgrid crisp" transform="translate(290.71000000000004,0)" d="M0,40v400" style="stroke: rgb(235, 240, 248); stroke-opacity: 1; stroke-width: 1px;"/><path class="xgrid crisp" transform="translate(387.65,0)" d="M0,40v400" style="stroke: rgb(235, 240, 248); stroke-opacity: 1; stroke-width: 1px;"/><path class="xgrid crisp" transform="translate(486.18,0)" d="M0,40v400" style="stroke: rgb(235, 240, 248); stroke-opacity: 1; stroke-width: 1px;"/><path class="xgrid crisp" transform="translate(583.12,0)" d="M0,40v400" style="stroke: rgb(235, 240, 248); stroke-opacity: 1; stroke-width: 1px;"/></g><g class="y"><path class="ygrid crisp" transform="translate(0,410.35)" d="M100,0h580" style="stroke: rgb(235, 240, 248); stroke-opacity: 1; stroke-width: 1px;"/><path class="ygrid crisp" transform="translate(0,349.97)" d="M100,0h580" style="stroke: rgb(235, 240, 248); stroke-opacity: 1; stroke-width: 1px;"/><path class="ygrid crisp" transform="translate(0,229.21)" d="M100,0h580" style="stroke: rgb(235, 240, 248); stroke-opacity: 1; stroke-width: 1px;"/><path class="ygrid crisp" transform="translate(0,168.84)" d="M100,0h580" style="stroke: rgb(235, 240, 248); stroke-opacity: 1; stroke-width: 1px;"/><path class="ygrid crisp" transform="translate(0,108.46)" d="M100,0h580" style="stroke: rgb(235, 240, 248); stroke-opacity: 1; stroke-width: 1px;"/><path class="ygrid crisp" transform="translate(0,48.08)" d="M100,0h580" style="stroke: rgb(235, 240, 248); stroke-opacity: 1; stroke-width: 1px;"/></g></g><g class="zerolinelayer"><path class="yzl zl crisp" transform="translate(0,289.59000000000003)" d="M100,0h580" style="stroke: rgb(235, 240, 248); stroke-opacity: 1; stroke-width: 2px;"/></g><path class="xlines-below"/><path class="ylines-below"/><g class="overlines-below"/><g class="xaxislayer-below"/><g class="yaxislayer-below"/><g class="overaxes-below"/><g class="plot" transform="translate(100,40)" clip-path="url(#clipcfecb4xyplot)"><g class="scatterlayer mlayer"><g class="trace scatter tracef6801a" style="stroke-miterlimit: 2;"><g class="fills"><g><path class="js-fill" d="M580,249.59L0,249.59L0,288.45L0.4,300.73L0.6,284.05L0.66,281.5L0.99,271.42L1.39,274.08L1.46,277.54L1.52,276.04L1.72,281.59L1.92,281.56L1.99,323.49L2.05,323.74L2.12,309.51L3.05,261.44L3.24,263.29L3.31,263.37L3.51,273.25L3.58,306.27L3.64,308.69L3.91,290.33L3.97,289.18L4.57,291.74L4.64,266.11L5.03,269.61L5.1,275.33L5.23,305.58L5.83,283.08L5.89,286.38L6.16,296.54L6.22,270.36L6.42,274.91L6.49,275.4L6.69,294.32L6.75,327.66L6.82,338.84L7.22,287.36L7.28,283.21L7.35,282.31L7.48,288.05L7.55,292.6L7.75,305.01L7.81,274.51L7.88,276.02L8.34,328.9L8.41,341L8.87,307.62L9.2,329.25L9.27,334.95L9.34,337.58L9.4,291.51L9.93,350.69L10,375.29L10.73,288.2L10.93,301.26L10.99,305.25L11.19,312.01L11.26,315.92L11.32,315.19L11.39,319.44L11.46,318.78L11.52,323.01L12.12,281.39L12.52,289.3L12.58,292.1L12.65,291.14L12.85,294.09L12.98,293.71L13.04,297.44L13.18,343.28L13.71,277.95L13.77,281.36L14.1,288.1L14.17,263.19L14.63,272.43L14.7,305.05L14.77,306.51L14.83,290.01L15.23,266.61L15.56,287.69L15.63,293.16L16.02,266.66L16.29,301.02L16.36,305.84L17.35,259.47L17.42,260.02L17.55,260.41L17.75,259.21L17.81,265.04L17.94,288.8L18.54,273.73L18.61,276.18L18.94,271.07L19.53,328.36L19.6,313.71L19.67,303.13L19.93,286.67L20.4,300.54L20.46,300.62L20.53,271.59L21.12,315.84L21.19,308.99L21.85,270.48L22.18,287.62L22.25,291.69L22.45,295.76L22.71,291.07L22.78,285.2L23.24,260.98L23.64,273.43L23.71,274.59L24.04,284.29L24.37,277.11L24.43,271.98L24.83,255.44L25.36,258.15L25.43,258.6L25.69,262.9L25.76,269.11L25.82,309.9L26.29,255.88L26.49,258.54L26.55,261.3L26.82,269.82L27.02,254.47L27.15,254.69L27.22,254.9L27.28,254.5L27.35,260.27L27.41,280.69L28.08,270.47L28.14,271.2L28.41,275.91L28.47,259.07L28.61,258.92L28.74,259.3L28.8,259.83L28.87,260.09L28.94,265.29L29.07,289.49L29.67,277.02L29.73,277.77L30,284.81L30.06,263.54L30.39,266.5L30.46,266.31L30.53,272L30.66,301.18L31.19,267.03L31.25,270.07L31.32,275.8L31.52,282.66L31.65,262.75L31.85,263.54L31.92,263.62L32.12,264.66L32.18,291.89L32.25,297.49L32.51,265.3L32.58,262.07L32.91,266.73L32.98,256.56L33.37,259.64L33.44,260L33.84,265.14L34.04,261.33L34.1,259.68L34.37,256.42L34.5,262.18L34.57,264.66L35.29,287.44L35.36,324.07L35.43,328.38L35.56,292.75L35.63,284.84L35.96,265.8L36.29,286.79L36.35,289.39L36.42,264.54L37.02,299.38L37.08,289.69L37.15,285.15L38.21,259.89L38.27,260.21L38.47,268.15L38.54,293.74L38.6,296.37L38.94,282.83L39,279.26L39.07,275.24L39.47,294.35L39.53,295.02L39.6,268.82L40.19,320.87L40.26,313.34L40.59,305.69L40.79,314.69L40.86,320.29L41.12,337.32L41.19,293.24L41.45,308.14L41.52,309.32L41.65,317.43L41.72,350.41L41.78,367.42L42.31,313.3L42.38,318.24L42.71,334.58L42.78,290.1L42.91,296.62L42.98,298.54L43.24,302.87L43.31,338.59L43.37,358.51L43.77,317.37L43.97,317.95L44.03,318.27L44.1,275.67L44.83,284.86L44.9,287.48L45.03,289.2L45.23,282.94L45.29,281.08L45.43,278.72L45.69,290.75L45.76,291.41L46.55,364.57L46.75,331.81L46.82,324.99L47.54,274.06L48.01,285.86L48.07,318.8L48.14,320.43L48.21,306.99L48.27,300.07L49.13,267.93L49.27,272.67L49.33,277.12L49.6,297.14L49.66,329.27L49.73,340.73L50.13,288.37L50.19,284.95L50.26,283.15L50.39,291.84L50.46,302.05L50.66,318.17L50.72,281.27L51.05,291.76L51.12,294.51L51.32,339.32L51.52,301.8L51.58,293.72L52.31,265.47L52.64,266.81L52.71,268.25L52.91,301.89L53.24,280.67L53.31,278.5L53.5,276.73L53.83,284.8L53.9,263.7L54.3,265.97L54.36,267.68L54.5,303.51L55.16,301.78L55.23,269.69L55.42,274.58L55.49,278.71L56.02,304.2L56.28,290.4L56.35,286.36L56.48,282.12L56.62,282.51L56.68,286.77L57.61,359.26L57.68,380L58.14,302.3L58.54,336.62L58.6,340.19L58.67,291.93L59.26,366.93L59.33,342.9L59.4,327.42L60.26,278.29L60.39,280.54L60.46,282.15L60.66,284.17L60.72,291.68L60.85,331.71L61.38,280.75L61.45,281.18L61.78,297.46L61.85,269.36L61.98,269.86L62.05,270.51L62.24,271.38L62.31,276.87L62.44,306.1L62.97,259.53L63.04,259.53L63.44,259.26L64.03,295.6L64.1,280.12L64.16,271.56L64.56,253.92L65.09,256.12L65.16,256.28L65.49,259.78L65.56,281.06L65.62,286.68L65.95,256.84L66.02,253.65L66.15,248.81L66.28,259.56L66.75,254.39L66.81,254.39L67.08,257.08L67.14,258.7L67.74,256.08L67.87,257.21L67.94,257.76L68.6,262L68.67,267.99L68.73,299.66L69.33,267.97L69.4,268.5L69.46,272.29L69.73,284.51L69.79,262.35L70.06,264.21L70.12,264.59L70.39,301.62L70.65,281.72L70.72,281.75L70.79,279.66L71.18,289.79L71.25,292.94L71.32,293.57L71.38,268.17L71.78,279.46L71.85,287.12L71.98,321.85L72.51,277.96L72.57,279.35L72.64,285.53L72.97,274.13L73.57,326.09L73.63,309.83L73.7,297.98L74.1,275.2L74.43,299.15L74.49,300.85L74.56,272.74L75.16,316.52L75.22,304.07L75.29,296.91L76.15,261.1L76.28,261.26L76.35,261.55L76.55,264.62L76.61,265.6L76.75,299.35L77.28,262.76L77.34,265.47L77.41,273.74L77.47,257.98L78.14,265.44L78.2,265.6L78.67,264.05L79.86,290.37L79.92,285.94L79.99,278.96L80.32,266.16L80.72,274.44L80.79,275.73L81.38,300.22L81.45,336.18L81.51,339.93L81.65,304.19L81.71,294.23L82.57,261.37L82.9,262.87L82.97,269.32L83.04,298.85L83.5,255.49L83.7,265.59L83.77,268.22L83.96,273.33L84.23,256.92L84.3,256.57L84.49,253.1L84.56,258.47L84.63,274.06L85.16,238.36L85.22,240.57L85.29,243.2L86.28,272.73L86.48,268.33L86.55,266.88L87.21,275.26L87.27,259.39L87.41,258.5L87.67,260.31L87.74,261.29L87.87,290.98L88.47,271.83L88.53,274.62L88.6,257.84L89.26,266.6L89.33,268.27L89.39,271.4L89.86,260.88L89.92,261.41L89.99,263.49L90.85,272.52L90.92,278.9L91.05,317.15L91.65,280.33L91.71,280.65L91.98,289.06L92.04,264.25L92.11,264.11L92.17,264.53L92.24,265.59L92.51,276.83L92.57,308.52L92.64,308.2L92.7,292.29L93.17,263.83L93.5,282.44L93.57,282.73L94.03,259.24L94.16,286.23L94.29,278.29L94.36,273.48L94.82,259.38L95.09,273.76L95.15,276.16L95.22,260.09L95.75,293.53L95.88,275.85L95.95,269.81L96.21,259.88L96.55,273.5L96.61,275.81L96.74,279.83L96.94,261.16L97.01,261.3L97.08,261.62L97.27,267.17L97.34,289.29L97.41,290.99L97.54,276.73L97.6,274.29L97.8,272.12L98.07,275.9L98.13,280.38L98.33,283.58L98.4,262.77L98.66,261.92L98.8,263.34L98.86,263.47L99,294.2L99.39,260.67L99.59,276.2L99.66,281.15L99.72,260.22L100.39,271.89L100.45,272.62L100.52,274.72L100.92,266.69L100.98,265.13L101.38,274.21L101.45,278.26L101.78,277.21L102.04,283.02L102.11,321.01L103.37,261.46L103.43,261.55L103.5,261.84L103.56,261.58L103.63,267.2L103.7,294.45L104.36,262.7L104.43,263.56L104.62,266.8L104.76,255.51L104.89,255.68L104.95,256.42L105.22,264.98L105.29,285.72L105.82,249.6L106.15,259.55L106.21,263.62L106.35,256.07L106.88,283.19L107.01,267.89L107.07,263.06L107.47,247.43L107.8,263.29L107.87,265.6L108.46,278.41L108.8,233.6L108.86,229.24L108.99,228.35L109.06,230.91L109.13,236.97L110.12,268.61L110.19,263.88L110.85,250.68L111.05,255.98L111.11,256.51L111.44,259.04L111.51,259.9L111.64,261.6L111.91,254.36L111.97,252.83L112.17,250.19L112.44,255.58L112.5,256.86L112.97,259.12L113.03,258.86L113.1,264.88L113.23,293.93L113.83,267.87L113.89,267.22L114.16,274.45L114.23,258.45L114.49,262.43L114.56,263.34L114.62,263.6L114.69,269.64L114.82,296.55L115.35,253.84L115.42,253.06L115.55,256.01L115.62,261.33L115.81,257.49L116.41,294.68L116.48,279.27L116.54,269.53L117.01,250.72L117.27,263.96L117.34,265.61L117.4,255.83L118,279.77L118.07,268.69L118.13,264.07L118.46,251.81L118.79,262.82L118.86,268L118.99,258.67L119.59,287.25L119.66,275.75L119.72,272.13L120.18,263.37L120.32,271.24L120.38,277.76L120.58,264.86L121.18,311.94L121.24,297.31L121.31,286.06L121.91,253.93L122.3,256.79L122.37,257.15L122.7,259.14L122.9,255.73L122.97,253.91L123.36,238.42L123.69,252.21L123.76,253.15L124.16,258.1L124.22,264.46L124.29,287.88L124.82,255.5L124.95,259.14L125.02,261L125.28,278.75L125.35,260.78L125.68,262.46L125.75,261.58L125.95,291.28L126.21,261.79L126.28,258.38L126.48,252.07L126.74,266.42L126.81,271.54L126.87,272.62L126.94,257.16L127.01,256.85L127.14,258.36L127.2,259.6L127.4,268.23L127.47,288.92L127.54,289.44L127.6,276.33L128.53,253.74L128.59,253.76L128.93,255.78L128.99,260.95L129.12,277.45L129.65,257.39L129.72,256.59L130.05,263.09L130.12,254.95L130.51,256.34L130.58,261.41L130.71,276.88L131.11,260.85L131.31,262.77L131.38,263.73L131.64,271.85L131.71,258.18L132.04,259.94L132.1,259.9L132.17,260.46L132.24,281.71L132.3,287.91L132.7,263.24L132.77,264.1L132.83,261.6L132.96,264.42L133.03,254.11L133.83,264.65L133.96,259.32L134.02,256.4L134.49,237.02L134.95,244.11L135.02,242.86L135.42,258.67L135.61,246.03L135.68,240.72L136.01,203.43L136.28,236.01L136.34,244.01L136.81,232.86L136.87,246.69L137.07,265.42L137.67,254.87L137.73,254.75L138,259.06L138.2,251.08L138.26,250.56L138.46,252.47L138.53,257.88L138.59,269.13L139.12,242.42L139.19,247.94L139.26,252.11L140.25,281.95L140.38,270.79L140.45,268.82L140.71,264.39L141.11,271.12L141.18,271.53L141.24,257.8L141.84,281.75L141.9,273.22L141.97,269.72L142.17,258.19L142.63,272.73L142.7,275.99L142.77,277.22L142.83,260.33L143.29,264.76L143.36,290.4L143.43,295.56L143.76,268.37L143.82,268.2L144.09,281.95L144.22,259.39L144.35,259.62L144.42,259.95L144.55,259.54L144.88,260.72L144.95,261.49L145.41,255.72L145.48,255.27L145.88,258.82L145.94,259.8L146.47,271.53L146.54,305.75L147.6,258.67L147.86,261.46L147.93,261.99L148,262.29L148.06,267.96L148.13,293.17L148.79,270.83L148.86,271.99L149.12,280.04L149.19,261.84L149.45,266.42L149.52,266.98L149.59,266.57L149.65,272.88L149.78,298.8L150.25,262.59L150.31,263.13L150.38,261.21L150.71,277.08L150.78,260.14L151.04,264.49L151.11,265.02L151.17,265.21L151.24,270.8L151.31,294.89L151.9,253.02L151.97,253.4L152.1,257.46L152.17,262.91L152.43,256.01L152.96,279.54L153.03,275.71L153.1,277.6L154.09,252.74L154.42,254.36L154.49,268.48L154.55,269.78L154.82,261.36L154.88,259.57L155.21,259.83L155.28,250.31L155.74,254.32L155.81,254.25L156.21,257.4L156.47,255.69L156.54,254.1L156.74,250.91L157.13,256.89L157.2,256.95L157.47,259.4L157.53,259.39L157.6,265.51L157.66,291.84L158.26,227.92L158.33,225.06L159.25,261.86L159.32,256.63L159.39,245.21L159.92,188.29L160.25,213.54L160.31,231.56L160.38,232.67L160.64,227.28L160.78,232.6L160.84,220.36L160.91,221.52L161.04,213.03L161.24,216L161.31,229.87L161.84,252.46L162.1,250.75L162.17,251.46L162.37,256.66L162.43,263.16L162.96,218.66L163.23,234.33L163.29,244.42L164.02,261.66L164.09,256.34L164.15,238.21L164.68,176.58L165.01,189.54L165.08,216.42L165.54,224.21L165.61,204.92L166.07,141.67L166.4,176.82L166.47,190.72L167.13,214.75L167.27,201.45L167.33,180.03L167.73,164.9L167.86,171.74L167.93,181.73L167.99,182.01L168.06,190.44L168.59,211.66L168.72,211.04L168.79,178.68L168.85,177.44L168.92,159.29L169.38,115.48L169.58,158.35L169.65,171.9L170.11,218.05L170.31,215.7L170.38,174.16L170.44,172.54L170.51,143.27L170.91,100.19L171.17,143.88L171.24,143.87L171.3,146.88L171.37,146.52L171.44,197.44L171.9,223.86L172.3,219.99L172.36,220.03L173.29,250.45L173.36,251.05L173.42,251.19L173.49,255.35L173.62,262.46L173.95,250.18L174.15,250.61L174.22,250.44L175.08,259.74L175.15,270.82L175.21,271.42L175.28,265.67L175.34,265.16L175.61,259.4L176.01,264.76L176.07,266.97L176.14,267.18L176.21,256.37L176.34,256.02L176.6,257.36L176.67,258.48L176.8,279.76L177.4,259.68L177.46,262.06L177.53,253.94L178.19,259.11L178.26,260.18L178.32,260.76L178.46,257.15L178.52,255.19L178.99,239.96L179.18,247.17L179.25,250.58L179.85,257.54L179.91,269.45L180.51,199.56L180.71,232.43L180.77,249.93L181.5,271.84L181.63,259.28L181.7,255.53L182.16,244.63L182.43,251.49L182.5,253.26L182.56,251.67L182.96,255.06L183.03,260.3L183.09,271.57L183.69,247.75L183.75,247.96L184.02,253.45L184.08,254.96L184.15,251.89L184.61,256.85L184.68,265.15L184.75,265.4L184.81,260.57L185.01,256.03L185.61,257.91L185.67,257.57L186.07,237.66L186.34,261.39L186.4,259L186.47,258.79L186.67,259.37L186.87,258.19L186.93,257.57L187.26,262.84L187.33,254.93L187.4,254.79L187.59,255.47L187.73,255.36L187.79,256.08L187.93,272.59L188.39,247.02L188.46,237.4L188.59,232.69L188.92,247.54L188.99,247.52L189.05,247.39L189.45,251.8L189.58,250.02L189.65,248.55L190.18,240.26L190.31,246.39L190.38,248.33L190.97,259.47L191.04,270.39L191.77,221.65L191.9,231.39L191.96,243.32L192.63,264.12L192.76,254.55L192.83,238.43L193.22,188.09L193.55,228.08L193.62,239.14L194.22,257.15L194.28,249.51L194.35,230.16L194.88,172.47L195.08,208.79L195.14,222.39L195.81,253L195.87,237.89L195.94,215.22L196.47,140.89L196.73,193.18L196.8,204.28L197.33,244.52L197.53,204.08L197.59,188.84L197.92,138.04L198.26,201.89L198.32,232.18L198.98,252.28L199.05,250.26L199.12,236.9L199.51,200.32L199.84,229.48L199.91,234.5L200.57,254.29L200.77,250.13L200.84,249.03L201.04,245.52L201.1,242.67L202.1,258.75L202.16,267.29L202.82,245.88L203.22,251.01L203.29,251.18L203.55,255.28L203.62,255.15L203.69,260.36L203.75,267.09L204.15,234.31L204.22,228.24L204.41,217.36L204.68,240.04L204.74,245.66L205.34,255L205.47,247.21L205.54,240.08L205.8,202.26L206.14,225.8L206.2,235.54L206.27,234.97L206.33,238.45L206.4,242.27L206.93,255.72L207.13,245.74L207.19,239.46L207.46,214.74L207.79,237.38L207.86,242.87L208.52,253.84L208.65,246.72L208.72,239.45L209.05,220.78L209.45,240.17L209.51,245.42L210.17,258.91L210.31,252.41L210.37,249.58L210.57,207.27L211.04,250.22L211.1,250.53L211.7,254.37L211.83,250.41L211.9,246.35L212.43,238.38L212.56,244.65L212.62,248.53L213.22,256.67L213.29,263.12L213.75,226.58L214.15,243.43L214.21,248.05L214.88,259.98L214.94,254.45L215.01,244.72L215.27,226.11L215.74,244.44L215.8,246.55L215.94,245.76L216.13,248.51L216.2,249.15L216.4,252.85L216.47,256.8L217,229.28L217.26,240.5L217.33,242.18L217.92,240.64L218.05,248.3L218.12,247.06L218.19,240.43L218.72,211.65L218.92,227.13L218.98,234.66L219.64,251.88L219.84,243.67L219.91,232.87L220.11,196.83L220.57,234.06L220.64,241.47L221.23,253.37L221.3,249.27L221.37,237.68L221.83,192L222.09,227.1L222.16,233.31L222.76,250.11L222.89,243.37L222.95,233.59L223.48,193.32L223.68,207L223.75,225.83L224.35,253.93L224.41,249.59L224.48,223.99L225.07,155.59L225.27,187.72L225.34,198.79L225.93,245.11L226.07,227.3L226.13,211.05L226.73,173.82L226.86,201.87L226.93,215.12L227.39,236.54L227.59,225.66L227.66,218.98L228.12,136.53L228.45,183.9L228.52,204.41L228.98,240.2L229.25,208.01L229.31,188.45L229.58,145.61L229.97,193.74L230.04,209.96L230.7,251.38L230.83,241.9L230.9,229.18L231.36,179.97L231.63,220.38L231.7,231.55L232.36,252.47L232.42,239.9L232.49,222.53L233.09,171.13L233.22,197.9L233.28,218.76L233.75,236.94L233.95,231.06L234.01,215.04L234.54,174.93L234.74,202.51L234.81,204.81L234.94,201.32L235.07,207.12L235.14,211.61L235.34,219.69L235.73,213.22L235.8,187.48L236,176.72L236.07,187.93L236.13,209.08L236.33,190.67L236.79,218.09L236.86,216.85L236.93,217.39L237.06,214.24L237.13,170.22L237.85,109.64L237.92,134.48L237.99,156.61L238.65,230.98L238.78,200.55L238.85,183.65L239.38,153.65L239.58,184.57L239.64,197.12L239.77,224.1L240.37,219.08L240.44,213.08L240.97,158.29L241.16,189.3L241.23,207.8L241.83,245.35L241.96,221.99L242.03,202.8L242.42,157.22L242.75,185.91L242.82,198.73L243.42,240.25L243.55,219.44L243.61,203.35L243.95,171L244.34,199.43L244.41,216.73L244.74,232.41L245.07,230.35L245.14,213.47L245.73,183.9L245.93,202.53L246,211.55L246.59,220.69L246.66,197.41L246.73,203.02L247.06,173.51L247.12,169.87L247.26,169.56L247.39,186.77L247.46,203.88L248.18,249.34L248.32,232.3L248.38,199.86L248.91,101.32L249.18,160.47L249.24,156.28L249.57,206.81L249.91,140.94L249.97,109.01L250.24,122.87L250.57,99.04L250.63,116.26L251.3,203.69L251.36,203.63L251.43,133.21L251.56,97L251.63,80.75L251.89,44.1L252.16,101.75L252.22,115.48L252.62,218.65L253.08,169.97L253.15,144.76L253.68,94.9L253.75,109.06L253.81,148.9L254.34,205.28L254.54,202.38L254.61,141.97L255.73,244.5L255.93,241.97L256,242.25L256.13,243.48L256.2,239.7L256.26,232.41L256.92,191.72L257.06,208.17L257.12,220.15L257.72,247.26L257.85,227.78L257.92,211.45L258.45,177.96L258.65,209.5L258.71,216.54L259.04,240.38L259.37,222.38L259.44,214.31L260.1,139.87L260.3,174.97L260.37,178.73L260.9,221.27L261.03,179.78L261.1,159L261.56,98.25L261.82,142.6L261.89,156.39L262.49,214.65L262.55,168.77L263.21,87.24L263.35,123.71L263.41,139.41L264.08,218.89L264.14,181.23L264.21,168.73L264.67,88.96L265,138.15L265.07,150.6L265.6,207.81L265.67,206.29L265.73,148.73L266.92,235.29L266.99,235.49L267.32,239.64L267.45,232.88L267.52,230.84L267.72,233.55L267.85,226.41L267.92,219.33L267.98,208.45L268.38,241.98L268.51,240.63L268.58,239.55L269.11,177.65L269.17,158.16L269.57,88.21L269.77,123.26L269.84,134.37L269.9,137.59L269.97,190.96L270.43,200.46L270.5,138.8L270.57,140.84L270.63,120.18L271.09,56.3L271.29,121.88L271.36,137.34L271.96,216.05L272.09,172.58L272.15,161.69L272.68,110.33L272.88,141.54L272.95,148.87L273.61,229.22L273.68,197.65L273.74,177.99L274.27,130.95L274.47,172.93L274.54,187.37L275.27,250.97L275.4,247.43L275.47,244L275.8,225.22L276.19,236.28L276.26,240.22L276.79,249.37L276.92,242.46L276.99,228.68L277.32,197.94L277.72,213.22L277.78,231.66L278.38,250.83L278.51,237.48L278.58,210.9L279.17,191.3L279.31,198.95L279.37,217.41L279.97,249.58L280.1,217.22L280.17,192.78L280.7,128.85L280.96,181.93L281.03,192.7L281.56,229.48L281.69,198.42L281.76,179.03L282.22,96.65L282.55,150.03L282.62,161.81L282.88,219.09L283.28,156.06L283.35,103.66L283.74,80.89L284.21,165.24L284.27,205.2L284.6,224.34L284.74,203.77L284.8,161.19L285.13,92.86L285.53,125.11L285.6,164.26L286.32,242.71L286.39,239.88L286.46,195.68L286.52,131.15L287.19,150.2L287.25,163.27L287.91,225.19L288.11,203.93L288.18,198.33L288.44,179.16L288.71,197.87L288.77,213.25L288.84,212.72L289.04,216.2L289.11,217.32L289.5,220.27L289.83,217.07L289.9,215.12L290.36,176.27L290.5,213.05L290.56,222.32L291.09,248.14L291.23,227.18L291.29,215.5L291.89,158.85L292.15,182.66L292.22,213.78L292.48,228.81L292.75,215.64L292.81,189.84L292.88,188.64L292.95,171.53L293.01,173.37L293.21,157.54L293.28,154.47L293.48,144.17L293.81,172.77L293.87,184.47L293.94,178.6L294.2,200.2L294.27,199.85L294.34,123.56L294.4,125.26L294.47,103.04L295,53.75L295.2,90.42L295.26,106.63L295.79,203.44L295.86,199.3L295.93,134.73L296.59,38.69L296.79,101.15L296.85,126.54L297.45,198.93L297.52,141.65L297.58,147.07L297.98,124.39L298.11,131.15L298.18,127.37L298.24,122.84L298.38,151.99L298.44,165.57L299.04,209.73L299.1,163.01L299.83,101.04L299.9,156.88L300.89,204.64L300.96,199.79L301.03,199.98L301.09,189.73L301.22,176.36L301.62,218.49L301.69,223.91L301.95,234.64L302.22,233.6L302.28,207.76L302.81,94.65L303.14,153.73L303.21,154.81L303.28,154.41L303.34,200.62L303.48,203.42L303.81,202.87L303.87,140.67L303.94,144.42L304.14,120.01L304.2,108.57L304.53,93.18L304.87,136.51L304.93,190.26L305.26,204.55L305.4,203.09L305.46,147.63L306.06,88.75L306.26,118.71L306.32,125.8L306.98,210.27L307.05,168.36L307.51,111.54L307.85,139.42L307.91,148.82L308.51,217.65L308.64,179.19L308.71,169.69L309.24,109.29L309.43,157.79L309.5,167.42L309.96,213.17L310.16,208.11L310.23,169.67L310.89,74.27L310.96,79.17L311.02,149.19L311.09,149.5L311.16,170.14L311.55,194.11L311.82,156.5L311.88,146.25L311.95,148.94L312.22,133.93L312.28,128.05L312.55,119.44L312.68,125.34L312.75,134.08L313.28,186.27L313.34,183.15L313.41,134.12L314.07,34.82L314.2,72.94L314.27,84.35L314.8,185.41L315,135.16L315.06,112.86L315.53,31.19L315.86,73.48L315.92,89.64L315.99,95.52L316.06,165.25L316.52,191.95L316.59,131.36L317.31,20L317.45,60.12L317.51,95.56L318.04,196.37L318.18,130.59L318.24,126.53L318.44,92.55L318.97,130.99L319.04,142.96L319.7,209.91L319.76,163.25L319.83,145.4L320.29,97.32L320.56,132.31L320.63,139.47L321.29,206.79L321.35,160.93L321.42,148.91L321.95,121.33L322.08,133.77L322.15,163.89L322.21,161.71L322.28,185.25L322.35,193.05L322.88,211.12L322.94,205.8L323.01,180.61L323.74,151.61L323.8,160.77L323.87,169.94L324.47,204.12L324.53,139.71L325.13,46.07L325.39,83.59L325.46,94.34L325.99,191.65L326.06,186.05L326.12,132.93L326.19,137.79L326.25,102.74L326.39,105.75L326.45,101.18L326.65,66.31L326.98,110.16L327.05,132.6L327.58,205.2L327.64,204.64L327.71,150.71L327.98,93.3L328.44,105.22L328.51,125.44L329.23,209.94L329.3,157.07L329.37,139.54L329.96,84.91L330.16,115.29L330.23,125.1L330.29,128.31L330.36,185.22L330.76,201.74L330.96,139.32L331.02,102.47L331.35,65.07L332.41,208.78L332.48,162.97L332.74,132.27L333.21,153.58L333.27,170.9L334,224.62L334.13,212.02L334.2,206.56L334.47,169.07L334.99,191.29L335.06,192.97L335.52,212.58L335.59,210.82L335.66,164.79L335.99,107.51L336.05,103.32L336.19,72.36L336.65,153.84L336.72,207.05L337.05,203.48L337.18,216.59L337.25,182.05L337.91,103.15L338.11,141.2L338.17,153.88L338.77,218.47L338.84,183.48L339.5,79.27L339.7,111.78L339.76,125.13L340.29,207.68L340.36,206.86L340.42,143.51L341.02,44.12L341.29,84.63L341.35,98.15L341.82,190.89L341.95,187.63L342.01,126.01L342.08,130.55L342.15,104.95L342.21,84.4L342.68,21.41L342.94,76.65L343.01,78.77L343.47,205.1L343.8,130.33L343.87,125.8L344.07,106.19L344.4,153.61L344.46,156.38L345.13,219.3L345.32,191.59L345.39,189.62L346.38,243.11L346.45,244.29L346.72,249.79L346.85,233.27L346.91,219.06L347.44,183.13L347.64,203.8L347.71,216.1L348.3,248.1L348.44,231.63L348.5,211.65L349.03,156.65L349.36,190.76L349.43,218.45L349.56,217.05L349.76,218.81L349.83,225.51L349.89,229.8L350.03,197.2L350.09,172.35L350.62,122.86L350.75,161.53L350.82,169.22L351.48,228.3L351.55,205.53L351.62,193.47L352.15,116.27L352.41,156.05L352.48,164.91L352.54,166.96L352.61,204.72L352.94,218.19L353.01,220.5L353.07,224.76L353.14,202.48L353.2,177.45L353.87,108.67L354,145.87L354.07,164.93L354.66,221.62L354.73,208.67L354.79,193.39L355.19,145.56L355.46,164.33L355.52,200.13L356.25,229.55L356.38,213.44L356.45,189.8L356.91,163.58L357.11,176.92L357.18,195.66L357.71,213.23L357.84,210.73L357.91,175.73L358.24,99.74L358.44,126.98L358.5,141.43L358.57,142.19L358.63,130.48L359.16,220.4L359.5,184.81L359.56,174.88L359.83,112.65L360.29,157.43L360.36,165.49L361.02,232.67L361.15,207.52L361.22,185.6L361.68,139.09L361.95,172.1L362.01,179.83L362.61,246.71L362.74,226.39L362.81,193.46L363.27,146.28L363.53,179.82L363.6,183.56L364.2,238.77L364.26,230.11L364.33,212.31L364.93,144.61L365.12,184.45L365.19,189.47L365.72,234.49L365.92,210L365.98,188.93L366.45,159.35L366.65,199.1L366.71,200.67L366.98,204.93L367.44,201.74L367.51,200.04L367.57,198.73L367.64,177.32L367.91,156.94L368.3,190.21L368.37,204.06L368.96,224.6L369.03,200.53L369.56,98.25L369.96,132.08L370.02,130.06L370.55,201.8L370.75,114.88L370.82,107.86L370.88,112.3L371.15,85.03L371.22,70.64L371.28,65.45L371.48,100.9L371.55,111.3L372.14,203.83L372.21,142.7L372.28,143.75L372.34,120.71L372.54,115.75L373.6,212.08L373.73,210.81L373.8,172.39L374.46,128.81L374.53,135.86L374.59,161.4L375.32,218.33L375.39,192.83L375.45,186.6L375.98,130.56L376.25,171.28L376.31,176.95L376.84,219.12L376.91,216.02L376.98,186.13L377.11,189.35L377.24,179.13L377.31,170.35L377.71,144.13L377.9,199.05L377.97,200.98L378.43,208.5L378.63,203.37L378.7,163.96L378.76,166.15L379.03,151.02L379.1,147.81L380.09,205L380.16,143.23L380.22,147.61L380.42,116.51L380.49,112.09L380.69,81.55L381.02,120.1L381.08,133.09L381.15,135.44L381.21,193.09L381.55,203.83L381.68,200.23L381.74,135.97L381.81,136.91L381.88,115.48L382.27,85.83L383.2,230.48L383.27,233.96L384,121.55L384.26,165.95L384.33,171.4L384.86,225.79L384.99,191.21L385.06,153.55L385.65,97.01L385.78,135.69L385.85,143.09L386.18,228.14L386.25,235.84L386.51,250.06L386.71,210.86L386.78,199.39L387.17,150.58L387.51,201.7L387.57,224.35L387.84,230.09L388.04,229.46L388.1,221.54L388.56,192.89L388.9,217.17L388.96,225.39L389.69,250L389.76,241.42L389.82,228.43L390.35,203.32L390.55,228.84L390.62,230.7L391.21,242.24L391.35,237.63L391.41,223.83L391.94,170.65L392.21,208.35L392.27,208.84L392.8,234.25L392.87,224.39L392.94,209.1L393.53,116.48L393.73,169L393.8,175.95L394.39,220.98L394.46,196.02L394.92,103.03L395.32,128.9L395.39,141.83L395.72,206.15L395.98,205.92L396.05,159.74L396.38,126.9L396.44,123.2L396.58,102.75L397.04,154.42L397.11,197.97L397.57,214.32L397.64,182.16L398.17,105L398.37,120.04L398.43,137.78L399.16,227.2L399.36,195.34L399.42,181.01L399.82,162.87L399.95,170.39L400.02,199.84L400.82,238.94L400.88,226.79L400.95,206.41L401.28,180.2L401.61,213.56L401.68,213.81L401.81,213.53L402.01,214.91L402.07,220.32L402.34,232.14L402.47,213.44L402.54,179L403,122.78L403.27,163.92L403.33,173.09L403.79,231.35L404.06,207.53L404.13,192.23L404.39,150.33L404.85,199.57L404.92,212.1L405.58,252.34L405.65,242.78L405.72,220.81L406.31,187.65L406.51,208.82L406.58,207.04L407.17,254.41L407.3,211.7L407.37,194.53L407.83,151.5L408.03,183.76L408.1,185.66L408.17,185.91L408.23,210.8L408.3,210.64L408.43,210.78L408.5,212.46L408.7,217.53L408.76,191.13L408.96,156.57L409.03,141.88L409.42,97.21L409.69,151.17L409.75,155.43L410.28,205.06L410.48,156.13L410.55,153.61L410.75,143.85L411.08,147.33L411.15,197.32L412.07,212.87L412.2,205.8L412.27,206.8L412.67,203.17L413.13,212.47L413.26,211.95L413.33,211.72L413.4,211.96L413.46,217.31L414.19,167.14L414.26,172.17L414.32,187.1L415.12,251.67L415.25,236.33L415.32,221.53L415.65,193.08L415.98,227.38L416.05,237.61L416.71,248.18L416.84,242.03L416.91,235.4L417.3,219.28L417.57,233.9L417.63,242.44L418.3,256.12L418.43,246.74L418.5,237.76L418.89,210.96L419.29,231.38L419.36,235.37L419.82,243.26L419.95,237.37L420.02,229.89L420.42,190L420.75,227.46L420.81,237.8L421.48,255.47L421.54,253.74L421.61,237.76L422.07,187.03L422.4,222.87L422.47,228.67L423.06,249.18L423.2,229.59L423.26,225.62L423.59,205.08L423.79,224.61L423.86,234.27L424.65,261.4L424.79,251.13L424.85,234.12L425.32,192.9L425.51,235.01L425.58,242.26L426.24,258.07L426.31,253.95L426.38,238.82L426.9,146.72L427.24,186.75L427.3,217.75L427.63,226.34L427.77,224.55L427.83,202.2L428.43,118.59L428.63,160.69L428.69,171.73L429.35,237.14L429.49,214.57L429.55,192.32L429.88,123.09L430.35,177.91L430.41,181.02L430.94,223.11L431.21,203.29L431.28,197.47L431.67,190.23L432.4,245.73L432.47,246.53L432.67,252.5L432.8,245.14L432.86,240.47L433.13,215.84L433.53,247.02L433.59,248.41L433.66,249.07L433.92,246.18L433.99,244.89L434.19,250.36L434.45,233.03L434.52,223.68L434.65,213L435.05,237.86L435.12,241.39L435.78,260.25L435.84,255.35L435.91,241.55L436.24,184.44L436.71,209.23L436.77,211.01L437.3,233L437.5,214.13L437.57,214.91L437.83,206.24L438.96,258.46L439.02,256.4L439.09,252.42L439.62,220.77L439.95,241.98L440.02,243.12L440.15,243.91L440.41,242.24L440.48,242.44L440.55,235.16L440.81,227.07L441.01,236.84L441.08,243.21L442.13,258.49L442.27,252.65L442.33,246.99L442.4,242.15L443,250.34L443.06,251.89L443.19,250.63L443.66,254.51L443.72,265.98L443.79,269.22L444.12,251.12L444.19,251.63L444.52,250.89L445.11,258.11L445.18,258.41L445.31,260.82L445.51,253.61L445.58,251.37L445.84,240.04L446.31,252.08L446.37,253.3L446.57,254.02L446.77,253.16L446.97,253.47L447.04,251.59L447.43,214.95L447.9,236.29L447.96,238.07L448.56,251.55L448.62,242.7L448.69,234.03L448.89,224.61L449.42,229.1L449.49,230.52L450.01,249.21L450.21,240.53L450.28,229.93L450.74,213.54L451.01,227.68L451.07,227.95L451.67,257.94L451.87,241.78L451.94,233L452.07,224.9L452.53,247.2L452.6,248.18L453.19,257.96L453.26,267.38L453.39,256.24L453.46,251L453.79,223.86L454.19,249.7L454.25,250.73L454.32,249.38L454.78,254.99L454.85,266.06L454.91,272.51L455.44,249.81L455.51,249.93L456.44,257.92L456.5,257.75L456.57,256.97L457.1,251.11L457.43,254.08L457.5,255.08L457.63,254.5L457.83,255.52L457.89,255.26L457.96,260.79L458.03,283.03L458.56,248.82L458.62,250.52L458.69,251.61L458.89,259.32L458.95,263.76L459.15,255.91L459.62,282.91L459.75,267.6L459.82,259.01L460.15,239.82L460.68,247.56L460.74,249.62L461.14,257.31L461.21,267.6L461.87,235.82L462,250.41L462.07,252.71L462.86,274.75L462.93,264.08L462.99,257.76L463.46,230.3L463.72,250.57L463.79,252.41L463.85,250.57L464.25,254.26L464.32,259.3L464.45,272.85L464.78,208.65L464.85,200.02L464.98,190.73L465.24,235.33L465.31,239.01L465.38,238.32L465.44,241.48L465.64,241.42L465.71,243.61L466.04,253.53L466.11,240.24L466.44,183.98L466.9,223.42L466.97,225.2L467.63,235.39L467.76,232.21L467.83,227.58L468.03,221.11L468.36,239.72L468.42,241.54L469.15,261.06L469.48,250.8L469.55,250.1L469.68,248.02L469.95,252.5L470.01,255.51L470.21,255.11L470.81,278.05L470.87,265.21L470.94,259.01L471.34,240.17L471.8,250.06L471.87,250.62L472.2,250.46L472.26,253.88L472.33,260.84L472.79,232.56L472.86,223.6L473.06,211.84L473.26,242.88L473.32,249.31L473.79,252.5L473.85,257.03L473.99,266.61L474.45,244.43L474.52,244.52L475.57,269.1L475.64,259.94L475.71,254.78L476.1,218.98L476.37,246.65L476.44,250.45L477.16,274.08L477.3,259.55L477.36,255.02L477.56,242.26L478.09,250.96L478.16,251.87L478.75,255.4L478.89,253.96L478.95,252.03L479.28,239.5L479.68,251.69L479.75,251.79L480.08,253.88L480.14,253.79L480.21,259.62L480.28,275.34L480.74,213.9L480.81,208.51L480.87,205.91L481,223.12L481.07,234.98L481.87,266.58L481.93,263.47L482,255.92L482.4,243.9L482.66,252.82L482.73,257.14L482.86,265L483.26,241.69L483.32,234.13L483.39,235.06L483.45,225.83L483.52,225.55L483.59,220.58L483.65,221.09L483.79,216.26L483.85,214.18L485.11,240.34L485.18,231.59L485.51,174.27L486.04,204.89L486.1,224.83L486.57,233.25L486.7,219.62L486.77,211.85L487.1,169.62L487.63,188.71L487.69,223.52L488.29,256.55L488.55,235.57L488.62,232.65L488.69,230.23L488.95,245.05L489.02,246.3L489.35,244.67L489.88,250.87L489.94,250.7L490.01,250.65L490.34,244.2L490.8,246.44L490.87,246.75L491.27,243.85L491.33,244.26L491.4,250.9L491.47,260.39L491.86,230.77L492,233.81L492.06,236.5L492.39,241.55L492.73,233.52L492.79,233.26L493.06,244.99L493.25,240.02L493.32,233.91L493.52,223.22L493.98,235.55L494.05,235.82L494.51,233.95L494.58,238.4L494.65,235.66L494.71,230.77L495.04,197.77L495.64,206.2L495.7,224.51L495.9,225.9L495.97,226.64L496.17,231.63L496.23,214.01L496.37,202.46L496.5,222.9L496.83,217.49L496.9,222.26L497.89,275.65L497.96,270.14L498.35,264.34L498.68,270.13L498.75,271.91L498.82,272.33L498.88,257.78L499.02,257.31L499.28,259.47L499.35,260.38L499.41,262.06L499.88,255.83L499.94,255.77L500.54,264.98L500.61,266.62L500.94,271.51L501,272.98L501.53,257.14L501.86,264.59L501.93,265.49L502.53,277.3L502.59,313.96L503.12,268.43L503.52,276.87L503.58,277.24L503.65,258.76L504.18,290.82L504.31,271.53L504.38,265.88L504.71,249.63L505.24,253.9L505.31,254.23L505.64,252.72L505.7,257.53L505.77,269.57L506.1,233.16L506.56,252.77L506.63,255.03L506.7,255.72L506.76,251.39L506.83,244.24L507.23,253.26L507.29,259.04L507.36,271.8L507.82,247.56L507.96,252.2L508.02,253.12L508.88,261.67L508.95,276.67L509.01,278.33L509.15,263.11L509.21,258.53L509.28,256.91L509.74,261.09L509.81,263.98L509.94,267.43L510.01,256.45L510.41,258.08L510.47,258.91L510.6,284.17L511.27,272.83L511.33,256.94L511.4,256.71L511.6,258.35L511.66,258.54L512.13,261.67L512.33,258.26L512.39,257.18L512.66,254.96L513.12,256.64L513.19,257.01L513.58,255.9L513.65,261.46L513.72,289.72L514.38,230.65L514.58,258.82L514.64,262.2L514.78,255.87L515.37,299.03L515.57,275.06L515.64,271.07L515.77,265.01L516.1,278.96L516.17,281.29L516.3,287.26L516.36,264.86L516.63,267.38L516.7,267.81L516.83,273.6L516.89,299.28L516.96,302.51L517.16,279.65L517.23,275.89L517.82,276.87L517.95,259.24L518.29,260.78L518.35,261.2L518.48,262.25L518.88,259.22L518.95,259.33L519.01,259.14L519.21,260.73L519.28,260.94L520.01,271.59L520.07,304.96L520.6,264.75L520.93,279.69L521,282.11L521.07,282.41L521.13,260.66L521.6,265.01L521.66,293.94L522.39,310.69L522.46,272.74L523.19,302.96L523.45,290.51L523.52,284.97L523.78,275.74L524.05,288.61L524.11,291.48L524.24,292.41L524.38,289.55L524.44,287.28L524.77,293.5L524.84,330.67L524.91,333.95L525.04,312.91L525.11,305.75L525.9,272.35L526.17,279.28L526.23,280.47L526.36,290.91L526.43,328.89L526.5,336.49L526.83,292.72L526.89,287.27L527.36,305.74L527.42,305.53L527.49,273.51L527.95,293.45L528.02,325.01L528.09,331.66L528.28,286.53L528.35,281.05L528.55,271.55L528.81,289.54L528.88,294.3L529.01,300.97L529.08,271.59L529.34,277.58L529.41,278.77L529.48,277.68L529.54,282.1L529.61,307.16L529.67,306.75L529.74,294.51L530.8,259.19L530.87,259.2L531.07,257.94L531.13,262.33L531.2,282.37L531.4,267.42L531.99,273.09L532.06,273.21L532.12,275.55L532.26,259.24L532.46,260.88L532.52,261.35L532.72,262.43L532.79,288.09L532.85,295.84L533.25,281.82L533.52,288.75L533.58,262.25L533.85,268.1L533.91,271.22L534.11,276.98L534.57,269.13L534.64,267.01L534.91,261.06L535.44,264.06L535.5,264.49L535.57,263.86L535.77,265.64L535.83,265.34L535.9,272.48L535.97,310.13L536.5,268.3L536.63,273.88L536.69,276.85L536.96,289.54L537.02,264.4L537.16,261.97L537.42,267.12L537.49,273.78L537.62,304.45L538.08,262.46L538.22,271.12L538.28,274.6L538.48,286.9L538.68,263.34L538.88,264.41L538.95,264.83L539.14,293.89L539.34,275.81L539.41,269.53L540.27,256.53L540.34,256.57L540.4,256.83L540.53,257.21L540.6,256.97L540.67,261.87L540.73,279.26L541.26,253.18L541.33,254.14L541.4,255.97L541.73,264.56L541.79,255.61L542.12,258.29L542.19,258.49L542.39,284.09L542.98,275.59L543.05,277.33L543.32,285.85L543.38,264.07L543.51,265.08L543.58,265.08L543.85,273.22L543.91,302.25L543.98,311.97L544.31,288.35L544.57,293.61L544.64,296.93L544.71,267.32L545.37,283.54L545.43,283.83L545.5,286.74L545.77,270.84L545.83,267.09L546.03,262.48L546.23,271.65L546.3,274.59L547.02,291.44L547.09,328.89L547.16,332.37L547.22,312.19L547.29,301.01L547.62,275.82L548.02,302.75L548.08,303.38L548.15,270.95L548.75,321.37L548.81,303.72L548.88,291.73L549.74,262.04L549.8,262.24L549.87,262.45L550.14,264.21L550.2,269.43L550.33,297.03L550.93,274.58L551,276.34L551.2,281.33L551.33,262.47L551.39,263.61L551.46,263.77L551.73,265.11L551.79,270.05L551.92,296.92L552.52,276.53L552.59,280.27L552.92,273.26L553.51,325.71L553.58,313.25L553.65,306.09L553.98,285.67L554.37,302.09L554.44,303.01L554.51,272.96L555.1,337.24L555.17,322.66L555.9,272.62L556.16,277.22L556.23,278.95L556.63,285.91L556.89,281.87L556.96,279.39L557.82,294.61L557.88,295.84L558.08,300.22L558.15,308.02L558.28,358.39L558.74,292.39L558.88,299.11L558.94,302.57L559.21,319.54L559.27,280.22L559.8,339.7L559.87,351.79L560.4,292.76L560.66,316.66L560.73,323.53L560.8,326.78L560.86,285.3L561.46,355.62L561.59,325.79L561.66,313.52L562.25,315.91L562.52,272.73L562.78,274.28L562.85,273.23L562.98,305.72L563.31,284.46L563.38,283.69L564.04,262.7L564.51,268.8L564.57,294.56L564.64,295.55L564.7,287.94L564.77,283.96L565.63,262.1L565.96,266.54L566.03,269.5L566.23,319.16L566.49,292.69L566.56,288.52L566.89,297.25L566.96,267.67L567.42,276.74L567.48,276.81L567.82,282.77L567.95,274.63L568.01,271.42L568.28,263.41L568.54,273.56L568.61,276.37L569.34,292.21L569.47,284.43L569.54,278.35L569.87,262.96L570.27,275.88L570.33,277.3L570.46,278.44L570.8,274.64L570.86,284.63L570.99,326.14L571.59,281.98L571.66,282.51L571.92,287.76L571.99,263.02L572.45,274.42L572.52,305.52L572.58,305.99L572.65,295.72L573.05,282.7L573.38,293.98L573.44,296.41L573.51,295.83L573.58,268.72L574.04,278.12L574.11,307.43L574.17,312.03L574.5,288.42L574.57,284.35L574.64,282.59L574.84,294L574.9,297.36L575.1,305.5L575.17,274.56L575.76,348.36L575.89,315.21L575.96,305.56L576.23,289.98L576.62,313.91L576.69,316.52L576.76,282.39L577.35,350.23L577.42,338.21L578.61,265.42L578.68,265.06L578.87,268L579.07,266.26L579.14,265.63L579.34,264.62L579.67,267.31L579.74,268.28L580,279.27" style="fill: rgb(99, 110, 250); fill-opacity: 0.5; stroke-width: 0;"/></g></g><g class="errorbars"/><g class="lines"><path class="js-line" d="M0,288.45L0.4,300.73L0.6,284.05L0.66,281.5L0.99,271.42L1.39,274.08L1.46,277.54L1.52,276.04L1.72,281.59L1.92,281.56L1.99,323.49L2.05,323.74L2.12,309.51L3.05,261.44L3.24,263.29L3.31,263.37L3.51,273.25L3.58,306.27L3.64,308.69L3.91,290.33L3.97,289.18L4.57,291.74L4.64,266.11L5.03,269.61L5.1,275.33L5.23,305.58L5.83,283.08L5.89,286.38L6.16,296.54L6.22,270.36L6.42,274.91L6.49,275.4L6.69,294.32L6.75,327.66L6.82,338.84L7.22,287.36L7.28,283.21L7.35,282.31L7.48,288.05L7.55,292.6L7.75,305.01L7.81,274.51L7.88,276.02L8.34,328.9L8.41,341L8.87,307.62L9.2,329.25L9.27,334.95L9.34,337.58L9.4,291.51L9.93,350.69L10,375.29L10.73,288.2L10.93,301.26L10.99,305.25L11.19,312.01L11.26,315.92L11.32,315.19L11.39,319.44L11.46,318.78L11.52,323.01L12.12,281.39L12.52,289.3L12.58,292.1L12.65,291.14L12.85,294.09L12.98,293.71L13.04,297.44L13.18,343.28L13.71,277.95L13.77,281.36L14.1,288.1L14.17,263.19L14.63,272.43L14.7,305.05L14.77,306.51L14.83,290.01L15.23,266.61L15.56,287.69L15.63,293.16L16.02,266.66L16.29,301.02L16.36,305.84L17.35,259.47L17.42,260.02L17.55,260.41L17.75,259.21L17.81,265.04L17.94,288.8L18.54,273.73L18.61,276.18L18.94,271.07L19.53,328.36L19.6,313.71L19.67,303.13L19.93,286.67L20.4,300.54L20.46,300.62L20.53,271.59L21.12,315.84L21.19,308.99L21.85,270.48L22.18,287.62L22.25,291.69L22.45,295.76L22.71,291.07L22.78,285.2L23.24,260.98L23.64,273.43L23.71,274.59L24.04,284.29L24.37,277.11L24.43,271.98L24.83,255.44L25.36,258.15L25.43,258.6L25.69,262.9L25.76,269.11L25.82,309.9L26.29,255.88L26.49,258.54L26.55,261.3L26.82,269.82L27.02,254.47L27.15,254.69L27.22,254.9L27.28,254.5L27.35,260.27L27.41,280.69L28.08,270.47L28.14,271.2L28.41,275.91L28.47,259.07L28.61,258.92L28.74,259.3L28.8,259.83L28.87,260.09L28.94,265.29L29.07,289.49L29.67,277.02L29.73,277.77L30,284.81L30.06,263.54L30.39,266.5L30.46,266.31L30.53,272L30.66,301.18L31.19,267.03L31.25,270.07L31.32,275.8L31.52,282.66L31.65,262.75L31.85,263.54L31.92,263.62L32.12,264.66L32.18,291.89L32.25,297.49L32.51,265.3L32.58,262.07L32.91,266.73L32.98,256.56L33.37,259.64L33.44,260L33.84,265.14L34.04,261.33L34.1,259.68L34.37,256.42L34.5,262.18L34.57,264.66L35.29,287.44L35.36,324.07L35.43,328.38L35.56,292.75L35.63,284.84L35.96,265.8L36.29,286.79L36.35,289.39L36.42,264.54L37.02,299.38L37.08,289.69L37.15,285.15L38.21,259.89L38.27,260.21L38.47,268.15L38.54,293.74L38.6,296.37L38.94,282.83L39,279.26L39.07,275.24L39.47,294.35L39.53,295.02L39.6,268.82L40.19,320.87L40.26,313.34L40.59,305.69L40.79,314.69L40.86,320.29L41.12,337.32L41.19,293.24L41.45,308.14L41.52,309.32L41.65,317.43L41.72,350.41L41.78,367.42L42.31,313.3L42.38,318.24L42.71,334.58L42.78,290.1L42.91,296.62L42.98,298.54L43.24,302.87L43.31,338.59L43.37,358.51L43.77,317.37L43.97,317.95L44.03,318.27L44.1,275.67L44.83,284.86L44.9,287.48L45.03,289.2L45.23,282.94L45.29,281.08L45.43,278.72L45.69,290.75L45.76,291.41L46.55,364.57L46.75,331.81L46.82,324.99L47.54,274.06L48.01,285.86L48.07,318.8L48.14,320.43L48.21,306.99L48.27,300.07L49.13,267.93L49.27,272.67L49.33,277.12L49.6,297.14L49.66,329.27L49.73,340.73L50.13,288.37L50.19,284.95L50.26,283.15L50.39,291.84L50.46,302.05L50.66,318.17L50.72,281.27L51.05,291.76L51.12,294.51L51.32,339.32L51.52,301.8L51.58,293.72L52.31,265.47L52.64,266.81L52.71,268.25L52.91,301.89L53.24,280.67L53.31,278.5L53.5,276.73L53.83,284.8L53.9,263.7L54.3,265.97L54.36,267.68L54.5,303.51L55.16,301.78L55.23,269.69L55.42,274.58L55.49,278.71L56.02,304.2L56.28,290.4L56.35,286.36L56.48,282.12L56.62,282.51L56.68,286.77L57.61,359.26L57.68,380L58.14,302.3L58.54,336.62L58.6,340.19L58.67,291.93L59.26,366.93L59.33,342.9L59.4,327.42L60.26,278.29L60.39,280.54L60.46,282.15L60.66,284.17L60.72,291.68L60.85,331.71L61.38,280.75L61.45,281.18L61.78,297.46L61.85,269.36L61.98,269.86L62.05,270.51L62.24,271.38L62.31,276.87L62.44,306.1L62.97,259.53L63.04,259.53L63.44,259.26L64.03,295.6L64.1,280.12L64.16,271.56L64.56,253.92L65.09,256.12L65.16,256.28L65.49,259.78L65.56,281.06L65.62,286.68L65.95,256.84L66.02,253.65L66.15,248.81L66.28,259.56L66.75,254.39L66.81,254.39L67.08,257.08L67.14,258.7L67.74,256.08L67.87,257.21L67.94,257.76L68.6,262L68.67,267.99L68.73,299.66L69.33,267.97L69.4,268.5L69.46,272.29L69.73,284.51L69.79,262.35L70.06,264.21L70.12,264.59L70.39,301.62L70.65,281.72L70.72,281.75L70.79,279.66L71.18,289.79L71.25,292.94L71.32,293.57L71.38,268.17L71.78,279.46L71.85,287.12L71.98,321.85L72.51,277.96L72.57,279.35L72.64,285.53L72.97,274.13L73.57,326.09L73.63,309.83L73.7,297.98L74.1,275.2L74.43,299.15L74.49,300.85L74.56,272.74L75.16,316.52L75.22,304.07L75.29,296.91L76.15,261.1L76.28,261.26L76.35,261.55L76.55,264.62L76.61,265.6L76.75,299.35L77.28,262.76L77.34,265.47L77.41,273.74L77.47,257.98L78.14,265.44L78.2,265.6L78.67,264.05L79.86,290.37L79.92,285.94L79.99,278.96L80.32,266.16L80.72,274.44L80.79,275.73L81.38,300.22L81.45,336.18L81.51,339.93L81.65,304.19L81.71,294.23L82.57,261.37L82.9,262.87L82.97,269.32L83.04,298.85L83.5,255.49L83.7,265.59L83.77,268.22L83.96,273.33L84.23,256.92L84.3,256.57L84.49,253.1L84.56,258.47L84.63,274.06L85.16,238.36L85.22,240.57L85.29,243.2L86.28,272.73L86.48,268.33L86.55,266.88L87.21,275.26L87.27,259.39L87.41,258.5L87.67,260.31L87.74,261.29L87.87,290.98L88.47,271.83L88.53,274.62L88.6,257.84L89.26,266.6L89.33,268.27L89.39,271.4L89.86,260.88L89.92,261.41L89.99,263.49L90.85,272.52L90.92,278.9L91.05,317.15L91.65,280.33L91.71,280.65L91.98,289.06L92.04,264.25L92.11,264.11L92.17,264.53L92.24,265.59L92.51,276.83L92.57,308.52L92.64,308.2L92.7,292.29L93.17,263.83L93.5,282.44L93.57,282.73L94.03,259.24L94.16,286.23L94.29,278.29L94.36,273.48L94.82,259.38L95.09,273.76L95.15,276.16L95.22,260.09L95.75,293.53L95.88,275.85L95.95,269.81L96.21,259.88L96.55,273.5L96.61,275.81L96.74,279.83L96.94,261.16L97.01,261.3L97.08,261.62L97.27,267.17L97.34,289.29L97.41,290.99L97.54,276.73L97.6,274.29L97.8,272.12L98.07,275.9L98.13,280.38L98.33,283.58L98.4,262.77L98.66,261.92L98.8,263.34L98.86,263.47L99,294.2L99.39,260.67L99.59,276.2L99.66,281.15L99.72,260.22L100.39,271.89L100.45,272.62L100.52,274.72L100.92,266.69L100.98,265.13L101.38,274.21L101.45,278.26L101.78,277.21L102.04,283.02L102.11,321.01L103.37,261.46L103.43,261.55L103.5,261.84L103.56,261.58L103.63,267.2L103.7,294.45L104.36,262.7L104.43,263.56L104.62,266.8L104.76,255.51L104.89,255.68L104.95,256.42L105.22,264.98L105.29,285.72L105.82,249.6L106.15,259.55L106.21,263.62L106.35,256.07L106.88,283.19L107.01,267.89L107.07,263.06L107.47,247.43L107.8,263.29L107.87,265.6L108.46,278.41L108.8,233.6L108.86,229.24L108.99,228.35L109.06,230.91L109.13,236.97L110.12,268.61L110.19,263.88L110.85,250.68L111.05,255.98L111.11,256.51L111.44,259.04L111.51,259.9L111.64,261.6L111.91,254.36L111.97,252.83L112.17,250.19L112.44,255.58L112.5,256.86L112.97,259.12L113.03,258.86L113.1,264.88L113.23,293.93L113.83,267.87L113.89,267.22L114.16,274.45L114.23,258.45L114.49,262.43L114.56,263.34L114.62,263.6L114.69,269.64L114.82,296.55L115.35,253.84L115.42,253.06L115.55,256.01L115.62,261.33L115.81,257.49L116.41,294.68L116.48,279.27L116.54,269.53L117.01,250.72L117.27,263.96L117.34,265.61L117.4,255.83L118,279.77L118.07,268.69L118.13,264.07L118.46,251.81L118.79,262.82L118.86,268L118.99,258.67L119.59,287.25L119.66,275.75L119.72,272.13L120.18,263.37L120.32,271.24L120.38,277.76L120.58,264.86L121.18,311.94L121.24,297.31L121.31,286.06L121.91,253.93L122.3,256.79L122.37,257.15L122.7,259.14L122.9,255.73L122.97,253.91L123.36,238.42L123.69,252.21L123.76,253.15L124.16,258.1L124.22,264.46L124.29,287.88L124.82,255.5L124.95,259.14L125.02,261L125.28,278.75L125.35,260.78L125.68,262.46L125.75,261.58L125.95,291.28L126.21,261.79L126.28,258.38L126.48,252.07L126.74,266.42L126.81,271.54L126.87,272.62L126.94,257.16L127.01,256.85L127.14,258.36L127.2,259.6L127.4,268.23L127.47,288.92L127.54,289.44L127.6,276.33L128.53,253.74L128.59,253.76L128.93,255.78L128.99,260.95L129.12,277.45L129.65,257.39L129.72,256.59L130.05,263.09L130.12,254.95L130.51,256.34L130.58,261.41L130.71,276.88L131.11,260.85L131.31,262.77L131.38,263.73L131.64,271.85L131.71,258.18L132.04,259.94L132.1,259.9L132.17,260.46L132.24,281.71L132.3,287.91L132.7,263.24L132.77,264.1L132.83,261.6L132.96,264.42L133.03,254.11L133.83,264.65L133.96,259.32L134.02,256.4L134.49,237.02L134.95,244.11L135.02,242.86L135.42,258.67L135.61,246.03L135.68,240.72L136.01,203.43L136.28,236.01L136.34,244.01L136.81,232.86L136.87,246.69L137.07,265.42L137.67,254.87L137.73,254.75L138,259.06L138.2,251.08L138.26,250.56L138.46,252.47L138.53,257.88L138.59,269.13L139.12,242.42L139.19,247.94L139.26,252.11L140.25,281.95L140.38,270.79L140.45,268.82L140.71,264.39L141.11,271.12L141.18,271.53L141.24,257.8L141.84,281.75L141.9,273.22L141.97,269.72L142.17,258.19L142.63,272.73L142.7,275.99L142.77,277.22L142.83,260.33L143.29,264.76L143.36,290.4L143.43,295.56L143.76,268.37L143.82,268.2L144.09,281.95L144.22,259.39L144.35,259.62L144.42,259.95L144.55,259.54L144.88,260.72L144.95,261.49L145.41,255.72L145.48,255.27L145.88,258.82L145.94,259.8L146.47,271.53L146.54,305.75L147.6,258.67L147.86,261.46L147.93,261.99L148,262.29L148.06,267.96L148.13,293.17L148.79,270.83L148.86,271.99L149.12,280.04L149.19,261.84L149.45,266.42L149.52,266.98L149.59,266.57L149.65,272.88L149.78,298.8L150.25,262.59L150.31,263.13L150.38,261.21L150.71,277.08L150.78,260.14L151.04,264.49L151.11,265.02L151.17,265.21L151.24,270.8L151.31,294.89L151.9,253.02L151.97,253.4L152.1,257.46L152.17,262.91L152.43,256.01L152.96,279.54L153.03,275.71L153.1,277.6L154.09,252.74L154.42,254.36L154.49,268.48L154.55,269.78L154.82,261.36L154.88,259.57L155.21,259.83L155.28,250.31L155.74,254.32L155.81,254.25L156.21,257.4L156.47,255.69L156.54,254.1L156.74,250.91L157.13,256.89L157.2,256.95L157.47,259.4L157.53,259.39L157.6,265.51L157.66,291.84L158.26,227.92L158.33,225.06L159.25,261.86L159.32,256.63L159.39,245.21L159.92,188.29L160.25,213.54L160.31,231.56L160.38,232.67L160.64,227.28L160.78,232.6L160.84,220.36L160.91,221.52L161.04,213.03L161.24,216L161.31,229.87L161.84,252.46L162.1,250.75L162.17,251.46L162.37,256.66L162.43,263.16L162.96,218.66L163.23,234.33L163.29,244.42L164.02,261.66L164.09,256.34L164.15,238.21L164.68,176.58L165.01,189.54L165.08,216.42L165.54,224.21L165.61,204.92L166.07,141.67L166.4,176.82L166.47,190.72L167.13,214.75L167.27,201.45L167.33,180.03L167.73,164.9L167.86,171.74L167.93,181.73L167.99,182.01L168.06,190.44L168.59,211.66L168.72,211.04L168.79,178.68L168.85,177.44L168.92,159.29L169.38,115.48L169.58,158.35L169.65,171.9L170.11,218.05L170.31,215.7L170.38,174.16L170.44,172.54L170.51,143.27L170.91,100.19L171.17,143.88L171.24,143.87L171.3,146.88L171.37,146.52L171.44,197.44L171.9,223.86L172.3,219.99L172.36,220.03L173.29,250.45L173.36,251.05L173.42,251.19L173.49,255.35L173.62,262.46L173.95,250.18L174.15,250.61L174.22,250.44L175.08,259.74L175.15,270.82L175.21,271.42L175.28,265.67L175.34,265.16L175.61,259.4L176.01,264.76L176.07,266.97L176.14,267.18L176.21,256.37L176.34,256.02L176.6,257.36L176.67,258.48L176.8,279.76L177.4,259.68L177.46,262.06L177.53,253.94L178.19,259.11L178.26,260.18L178.32,260.76L178.46,257.15L178.52,255.19L178.99,239.96L179.18,247.17L179.25,250.58L179.85,257.54L179.91,269.45L180.51,199.56L180.71,232.43L180.77,249.93L181.5,271.84L181.63,259.28L181.7,255.53L182.16,244.63L182.43,251.49L182.5,253.26L182.56,251.67L182.96,255.06L183.03,260.3L183.09,271.57L183.69,247.75L183.75,247.96L184.02,253.45L184.08,254.96L184.15,251.89L184.61,256.85L184.68,265.15L184.75,265.4L184.81,260.57L185.01,256.03L185.61,257.91L185.67,257.57L186.07,237.66L186.34,261.39L186.4,259L186.47,258.79L186.67,259.37L186.87,258.19L186.93,257.57L187.26,262.84L187.33,254.93L187.4,254.79L187.59,255.47L187.73,255.36L187.79,256.08L187.93,272.59L188.39,247.02L188.46,237.4L188.59,232.69L188.92,247.54L188.99,247.52L189.05,247.39L189.45,251.8L189.58,250.02L189.65,248.55L190.18,240.26L190.31,246.39L190.38,248.33L190.97,259.47L191.04,270.39L191.77,221.65L191.9,231.39L191.96,243.32L192.63,264.12L192.76,254.55L192.83,238.43L193.22,188.09L193.55,228.08L193.62,239.14L194.22,257.15L194.28,249.51L194.35,230.16L194.88,172.47L195.08,208.79L195.14,222.39L195.81,253L195.87,237.89L195.94,215.22L196.47,140.89L196.73,193.18L196.8,204.28L197.33,244.52L197.53,204.08L197.59,188.84L197.92,138.04L198.26,201.89L198.32,232.18L198.98,252.28L199.05,250.26L199.12,236.9L199.51,200.32L199.84,229.48L199.91,234.5L200.57,254.29L200.77,250.13L200.84,249.03L201.04,245.52L201.1,242.67L202.1,258.75L202.16,267.29L202.82,245.88L203.22,251.01L203.29,251.18L203.55,255.28L203.62,255.15L203.69,260.36L203.75,267.09L204.15,234.31L204.22,228.24L204.41,217.36L204.68,240.04L204.74,245.66L205.34,255L205.47,247.21L205.54,240.08L205.8,202.26L206.14,225.8L206.2,235.54L206.27,234.97L206.33,238.45L206.4,242.27L206.93,255.72L207.13,245.74L207.19,239.46L207.46,214.74L207.79,237.38L207.86,242.87L208.52,253.84L208.65,246.72L208.72,239.45L209.05,220.78L209.45,240.17L209.51,245.42L210.17,258.91L210.31,252.41L210.37,249.58L210.57,207.27L211.04,250.22L211.1,250.53L211.7,254.37L211.83,250.41L211.9,246.35L212.43,238.38L212.56,244.65L212.62,248.53L213.22,256.67L213.29,263.12L213.75,226.58L214.15,243.43L214.21,248.05L214.88,259.98L214.94,254.45L215.01,244.72L215.27,226.11L215.74,244.44L215.8,246.55L215.94,245.76L216.13,248.51L216.2,249.15L216.4,252.85L216.47,256.8L217,229.28L217.26,240.5L217.33,242.18L217.92,240.64L218.05,248.3L218.12,247.06L218.19,240.43L218.72,211.65L218.92,227.13L218.98,234.66L219.64,251.88L219.84,243.67L219.91,232.87L220.11,196.83L220.57,234.06L220.64,241.47L221.23,253.37L221.3,249.27L221.37,237.68L221.83,192L222.09,227.1L222.16,233.31L222.76,250.11L222.89,243.37L222.95,233.59L223.48,193.32L223.68,207L223.75,225.83L224.35,253.93L224.41,249.59L224.48,223.99L225.07,155.59L225.27,187.72L225.34,198.79L225.93,245.11L226.07,227.3L226.13,211.05L226.73,173.82L226.86,201.87L226.93,215.12L227.39,236.54L227.59,225.66L227.66,218.98L228.12,136.53L228.45,183.9L228.52,204.41L228.98,240.2L229.25,208.01L229.31,188.45L229.58,145.61L229.97,193.74L230.04,209.96L230.7,251.38L230.83,241.9L230.9,229.18L231.36,179.97L231.63,220.38L231.7,231.55L232.36,252.47L232.42,239.9L232.49,222.53L233.09,171.13L233.22,197.9L233.28,218.76L233.75,236.94L233.95,231.06L234.01,215.04L234.54,174.93L234.74,202.51L234.81,204.81L234.94,201.32L235.07,207.12L235.14,211.61L235.34,219.69L235.73,213.22L235.8,187.48L236,176.72L236.07,187.93L236.13,209.08L236.33,190.67L236.79,218.09L236.86,216.85L236.93,217.39L237.06,214.24L237.13,170.22L237.85,109.64L237.92,134.48L237.99,156.61L238.65,230.98L238.78,200.55L238.85,183.65L239.38,153.65L239.58,184.57L239.64,197.12L239.77,224.1L240.37,219.08L240.44,213.08L240.97,158.29L241.16,189.3L241.23,207.8L241.83,245.35L241.96,221.99L242.03,202.8L242.42,157.22L242.75,185.91L242.82,198.73L243.42,240.25L243.55,219.44L243.61,203.35L243.95,171L244.34,199.43L244.41,216.73L244.74,232.41L245.07,230.35L245.14,213.47L245.73,183.9L245.93,202.53L246,211.55L246.59,220.69L246.66,197.41L246.73,203.02L247.06,173.51L247.12,169.87L247.26,169.56L247.39,186.77L247.46,203.88L248.18,249.34L248.32,232.3L248.38,199.86L248.91,101.32L249.18,160.47L249.24,156.28L249.57,206.81L249.91,140.94L249.97,109.01L250.24,122.87L250.57,99.04L250.63,116.26L251.3,203.69L251.36,203.63L251.43,133.21L251.56,97L251.63,80.75L251.89,44.1L252.16,101.75L252.22,115.48L252.62,218.65L253.08,169.97L253.15,144.76L253.68,94.9L253.75,109.06L253.81,148.9L254.34,205.28L254.54,202.38L254.61,141.97L255.73,244.5L255.93,241.97L256,242.25L256.13,243.48L256.2,239.7L256.26,232.41L256.92,191.72L257.06,208.17L257.12,220.15L257.72,247.26L257.85,227.78L257.92,211.45L258.45,177.96L258.65,209.5L258.71,216.54L259.04,240.38L259.37,222.38L259.44,214.31L260.1,139.87L260.3,174.97L260.37,178.73L260.9,221.27L261.03,179.78L261.1,159L261.56,98.25L261.82,142.6L261.89,156.39L262.49,214.65L262.55,168.77L263.21,87.24L263.35,123.71L263.41,139.41L264.08,218.89L264.14,181.23L264.21,168.73L264.67,88.96L265,138.15L265.07,150.6L265.6,207.81L265.67,206.29L265.73,148.73L266.92,235.29L266.99,235.49L267.32,239.64L267.45,232.88L267.52,230.84L267.72,233.55L267.85,226.41L267.92,219.33L267.98,208.45L268.38,241.98L268.51,240.63L268.58,239.55L269.11,177.65L269.17,158.16L269.57,88.21L269.77,123.26L269.84,134.37L269.9,137.59L269.97,190.96L270.43,200.46L270.5,138.8L270.57,140.84L270.63,120.18L271.09,56.3L271.29,121.88L271.36,137.34L271.96,216.05L272.09,172.58L272.15,161.69L272.68,110.33L272.88,141.54L272.95,148.87L273.61,229.22L273.68,197.65L273.74,177.99L274.27,130.95L274.47,172.93L274.54,187.37L275.27,250.97L275.4,247.43L275.47,244L275.8,225.22L276.19,236.28L276.26,240.22L276.79,249.37L276.92,242.46L276.99,228.68L277.32,197.94L277.72,213.22L277.78,231.66L278.38,250.83L278.51,237.48L278.58,210.9L279.17,191.3L279.31,198.95L279.37,217.41L279.97,249.58L280.1,217.22L280.17,192.78L280.7,128.85L280.96,181.93L281.03,192.7L281.56,229.48L281.69,198.42L281.76,179.03L282.22,96.65L282.55,150.03L282.62,161.81L282.88,219.09L283.28,156.06L283.35,103.66L283.74,80.89L284.21,165.24L284.27,205.2L284.6,224.34L284.74,203.77L284.8,161.19L285.13,92.86L285.53,125.11L285.6,164.26L286.32,242.71L286.39,239.88L286.46,195.68L286.52,131.15L287.19,150.2L287.25,163.27L287.91,225.19L288.11,203.93L288.18,198.33L288.44,179.16L288.71,197.87L288.77,213.25L288.84,212.72L289.04,216.2L289.11,217.32L289.5,220.27L289.83,217.07L289.9,215.12L290.36,176.27L290.5,213.05L290.56,222.32L291.09,248.14L291.23,227.18L291.29,215.5L291.89,158.85L292.15,182.66L292.22,213.78L292.48,228.81L292.75,215.64L292.81,189.84L292.88,188.64L292.95,171.53L293.01,173.37L293.21,157.54L293.28,154.47L293.48,144.17L293.81,172.77L293.87,184.47L293.94,178.6L294.2,200.2L294.27,199.85L294.34,123.56L294.4,125.26L294.47,103.04L295,53.75L295.2,90.42L295.26,106.63L295.79,203.44L295.86,199.3L295.93,134.73L296.59,38.69L296.79,101.15L296.85,126.54L297.45,198.93L297.52,141.65L297.58,147.07L297.98,124.39L298.11,131.15L298.18,127.37L298.24,122.84L298.38,151.99L298.44,165.57L299.04,209.73L299.1,163.01L299.83,101.04L299.9,156.88L300.89,204.64L300.96,199.79L301.03,199.98L301.09,189.73L301.22,176.36L301.62,218.49L301.69,223.91L301.95,234.64L302.22,233.6L302.28,207.76L302.81,94.65L303.14,153.73L303.21,154.81L303.28,154.41L303.34,200.62L303.48,203.42L303.81,202.87L303.87,140.67L303.94,144.42L304.14,120.01L304.2,108.57L304.53,93.18L304.87,136.51L304.93,190.26L305.26,204.55L305.4,203.09L305.46,147.63L306.06,88.75L306.26,118.71L306.32,125.8L306.98,210.27L307.05,168.36L307.51,111.54L307.85,139.42L307.91,148.82L308.51,217.65L308.64,179.19L308.71,169.69L309.24,109.29L309.43,157.79L309.5,167.42L309.96,213.17L310.16,208.11L310.23,169.67L310.89,74.27L310.96,79.17L311.02,149.19L311.09,149.5L311.16,170.14L311.55,194.11L311.82,156.5L311.88,146.25L311.95,148.94L312.22,133.93L312.28,128.05L312.55,119.44L312.68,125.34L312.75,134.08L313.28,186.27L313.34,183.15L313.41,134.12L314.07,34.82L314.2,72.94L314.27,84.35L314.8,185.41L315,135.16L315.06,112.86L315.53,31.19L315.86,73.48L315.92,89.64L315.99,95.52L316.06,165.25L316.52,191.95L316.59,131.36L317.31,20L317.45,60.12L317.51,95.56L318.04,196.37L318.18,130.59L318.24,126.53L318.44,92.55L318.97,130.99L319.04,142.96L319.7,209.91L319.76,163.25L319.83,145.4L320.29,97.32L320.56,132.31L320.63,139.47L321.29,206.79L321.35,160.93L321.42,148.91L321.95,121.33L322.08,133.77L322.15,163.89L322.21,161.71L322.28,185.25L322.35,193.05L322.88,211.12L322.94,205.8L323.01,180.61L323.74,151.61L323.8,160.77L323.87,169.94L324.47,204.12L324.53,139.71L325.13,46.07L325.39,83.59L325.46,94.34L325.99,191.65L326.06,186.05L326.12,132.93L326.19,137.79L326.25,102.74L326.39,105.75L326.45,101.18L326.65,66.31L326.98,110.16L327.05,132.6L327.58,205.2L327.64,204.64L327.71,150.71L327.98,93.3L328.44,105.22L328.51,125.44L329.23,209.94L329.3,157.07L329.37,139.54L329.96,84.91L330.16,115.29L330.23,125.1L330.29,128.31L330.36,185.22L330.76,201.74L330.96,139.32L331.02,102.47L331.35,65.07L332.41,208.78L332.48,162.97L332.74,132.27L333.21,153.58L333.27,170.9L334,224.62L334.13,212.02L334.2,206.56L334.47,169.07L334.99,191.29L335.06,192.97L335.52,212.58L335.59,210.82L335.66,164.79L335.99,107.51L336.05,103.32L336.19,72.36L336.65,153.84L336.72,207.05L337.05,203.48L337.18,216.59L337.25,182.05L337.91,103.15L338.11,141.2L338.17,153.88L338.77,218.47L338.84,183.48L339.5,79.27L339.7,111.78L339.76,125.13L340.29,207.68L340.36,206.86L340.42,143.51L341.02,44.12L341.29,84.63L341.35,98.15L341.82,190.89L341.95,187.63L342.01,126.01L342.08,130.55L342.15,104.95L342.21,84.4L342.68,21.41L342.94,76.65L343.01,78.77L343.47,205.1L343.8,130.33L343.87,125.8L344.07,106.19L344.4,153.61L344.46,156.38L345.13,219.3L345.32,191.59L345.39,189.62L346.38,243.11L346.45,244.29L346.72,249.79L346.85,233.27L346.91,219.06L347.44,183.13L347.64,203.8L347.71,216.1L348.3,248.1L348.44,231.63L348.5,211.65L349.03,156.65L349.36,190.76L349.43,218.45L349.56,217.05L349.76,218.81L349.83,225.51L349.89,229.8L350.03,197.2L350.09,172.35L350.62,122.86L350.75,161.53L350.82,169.22L351.48,228.3L351.55,205.53L351.62,193.47L352.15,116.27L352.41,156.05L352.48,164.91L352.54,166.96L352.61,204.72L352.94,218.19L353.01,220.5L353.07,224.76L353.14,202.48L353.2,177.45L353.87,108.67L354,145.87L354.07,164.93L354.66,221.62L354.73,208.67L354.79,193.39L355.19,145.56L355.46,164.33L355.52,200.13L356.25,229.55L356.38,213.44L356.45,189.8L356.91,163.58L357.11,176.92L357.18,195.66L357.71,213.23L357.84,210.73L357.91,175.73L358.24,99.74L358.44,126.98L358.5,141.43L358.57,142.19L358.63,130.48L359.16,220.4L359.5,184.81L359.56,174.88L359.83,112.65L360.29,157.43L360.36,165.49L361.02,232.67L361.15,207.52L361.22,185.6L361.68,139.09L361.95,172.1L362.01,179.83L362.61,246.71L362.74,226.39L362.81,193.46L363.27,146.28L363.53,179.82L363.6,183.56L364.2,238.77L364.26,230.11L364.33,212.31L364.93,144.61L365.12,184.45L365.19,189.47L365.72,234.49L365.92,210L365.98,188.93L366.45,159.35L366.65,199.1L366.71,200.67L366.98,204.93L367.44,201.74L367.51,200.04L367.57,198.73L367.64,177.32L367.91,156.94L368.3,190.21L368.37,204.06L368.96,224.6L369.03,200.53L369.56,98.25L369.96,132.08L370.02,130.06L370.55,201.8L370.75,114.88L370.82,107.86L370.88,112.3L371.15,85.03L371.22,70.64L371.28,65.45L371.48,100.9L371.55,111.3L372.14,203.83L372.21,142.7L372.28,143.75L372.34,120.71L372.54,115.75L373.6,212.08L373.73,210.81L373.8,172.39L374.46,128.81L374.53,135.86L374.59,161.4L375.32,218.33L375.39,192.83L375.45,186.6L375.98,130.56L376.25,171.28L376.31,176.95L376.84,219.12L376.91,216.02L376.98,186.13L377.11,189.35L377.24,179.13L377.31,170.35L377.71,144.13L377.9,199.05L377.97,200.98L378.43,208.5L378.63,203.37L378.7,163.96L378.76,166.15L379.03,151.02L379.1,147.81L380.09,205L380.16,143.23L380.22,147.61L380.42,116.51L380.49,112.09L380.69,81.55L381.02,120.1L381.08,133.09L381.15,135.44L381.21,193.09L381.55,203.83L381.68,200.23L381.74,135.97L381.81,136.91L381.88,115.48L382.27,85.83L383.2,230.48L383.27,233.96L384,121.55L384.26,165.95L384.33,171.4L384.86,225.79L384.99,191.21L385.06,153.55L385.65,97.01L385.78,135.69L385.85,143.09L386.18,228.14L386.25,235.84L386.51,250.06L386.71,210.86L386.78,199.39L387.17,150.58L387.51,201.7L387.57,224.35L387.84,230.09L388.04,229.46L388.1,221.54L388.56,192.89L388.9,217.17L388.96,225.39L389.69,250L389.76,241.42L389.82,228.43L390.35,203.32L390.55,228.84L390.62,230.7L391.21,242.24L391.35,237.63L391.41,223.83L391.94,170.65L392.21,208.35L392.27,208.84L392.8,234.25L392.87,224.39L392.94,209.1L393.53,116.48L393.73,169L393.8,175.95L394.39,220.98L394.46,196.02L394.92,103.03L395.32,128.9L395.39,141.83L395.72,206.15L395.98,205.92L396.05,159.74L396.38,126.9L396.44,123.2L396.58,102.75L397.04,154.42L397.11,197.97L397.57,214.32L397.64,182.16L398.17,105L398.37,120.04L398.43,137.78L399.16,227.2L399.36,195.34L399.42,181.01L399.82,162.87L399.95,170.39L400.02,199.84L400.82,238.94L400.88,226.79L400.95,206.41L401.28,180.2L401.61,213.56L401.68,213.81L401.81,213.53L402.01,214.91L402.07,220.32L402.34,232.14L402.47,213.44L402.54,179L403,122.78L403.27,163.92L403.33,173.09L403.79,231.35L404.06,207.53L404.13,192.23L404.39,150.33L404.85,199.57L404.92,212.1L405.58,252.34L405.65,242.78L405.72,220.81L406.31,187.65L406.51,208.82L406.58,207.04L407.17,254.41L407.3,211.7L407.37,194.53L407.83,151.5L408.03,183.76L408.1,185.66L408.17,185.91L408.23,210.8L408.3,210.64L408.43,210.78L408.5,212.46L408.7,217.53L408.76,191.13L408.96,156.57L409.03,141.88L409.42,97.21L409.69,151.17L409.75,155.43L410.28,205.06L410.48,156.13L410.55,153.61L410.75,143.85L411.08,147.33L411.15,197.32L412.07,212.87L412.2,205.8L412.27,206.8L412.67,203.17L413.13,212.47L413.26,211.95L413.33,211.72L413.4,211.96L413.46,217.31L414.19,167.14L414.26,172.17L414.32,187.1L415.12,251.67L415.25,236.33L415.32,221.53L415.65,193.08L415.98,227.38L416.05,237.61L416.71,248.18L416.84,242.03L416.91,235.4L417.3,219.28L417.57,233.9L417.63,242.44L418.3,256.12L418.43,246.74L418.5,237.76L418.89,210.96L419.29,231.38L419.36,235.37L419.82,243.26L419.95,237.37L420.02,229.89L420.42,190L420.75,227.46L420.81,237.8L421.48,255.47L421.54,253.74L421.61,237.76L422.07,187.03L422.4,222.87L422.47,228.67L423.06,249.18L423.2,229.59L423.26,225.62L423.59,205.08L423.79,224.61L423.86,234.27L424.65,261.4L424.79,251.13L424.85,234.12L425.32,192.9L425.51,235.01L425.58,242.26L426.24,258.07L426.31,253.95L426.38,238.82L426.9,146.72L427.24,186.75L427.3,217.75L427.63,226.34L427.77,224.55L427.83,202.2L428.43,118.59L428.63,160.69L428.69,171.73L429.35,237.14L429.49,214.57L429.55,192.32L429.88,123.09L430.35,177.91L430.41,181.02L430.94,223.11L431.21,203.29L431.28,197.47L431.67,190.23L432.4,245.73L432.47,246.53L432.67,252.5L432.8,245.14L432.86,240.47L433.13,215.84L433.53,247.02L433.59,248.41L433.66,249.07L433.92,246.18L433.99,244.89L434.19,250.36L434.45,233.03L434.52,223.68L434.65,213L435.05,237.86L435.12,241.39L435.78,260.25L435.84,255.35L435.91,241.55L436.24,184.44L436.71,209.23L436.77,211.01L437.3,233L437.5,214.13L437.57,214.91L437.83,206.24L438.96,258.46L439.02,256.4L439.09,252.42L439.62,220.77L439.95,241.98L440.02,243.12L440.15,243.91L440.41,242.24L440.48,242.44L440.55,235.16L440.81,227.07L441.01,236.84L441.08,243.21L442.13,258.49L442.27,252.65L442.33,246.99L442.4,242.15L443,250.34L443.06,251.89L443.19,250.63L443.66,254.51L443.72,265.98L443.79,269.22L444.12,251.12L444.19,251.63L444.52,250.89L445.11,258.11L445.18,258.41L445.31,260.82L445.51,253.61L445.58,251.37L445.84,240.04L446.31,252.08L446.37,253.3L446.57,254.02L446.77,253.16L446.97,253.47L447.04,251.59L447.43,214.95L447.9,236.29L447.96,238.07L448.56,251.55L448.62,242.7L448.69,234.03L448.89,224.61L449.42,229.1L449.49,230.52L450.01,249.21L450.21,240.53L450.28,229.93L450.74,213.54L451.01,227.68L451.07,227.95L451.67,257.94L451.87,241.78L451.94,233L452.07,224.9L452.53,247.2L452.6,248.18L453.19,257.96L453.26,267.38L453.39,256.24L453.46,251L453.79,223.86L454.19,249.7L454.25,250.73L454.32,249.38L454.78,254.99L454.85,266.06L454.91,272.51L455.44,249.81L455.51,249.93L456.44,257.92L456.5,257.75L456.57,256.97L457.1,251.11L457.43,254.08L457.5,255.08L457.63,254.5L457.83,255.52L457.89,255.26L457.96,260.79L458.03,283.03L458.56,248.82L458.62,250.52L458.69,251.61L458.89,259.32L458.95,263.76L459.15,255.91L459.62,282.91L459.75,267.6L459.82,259.01L460.15,239.82L460.68,247.56L460.74,249.62L461.14,257.31L461.21,267.6L461.87,235.82L462,250.41L462.07,252.71L462.86,274.75L462.93,264.08L462.99,257.76L463.46,230.3L463.72,250.57L463.79,252.41L463.85,250.57L464.25,254.26L464.32,259.3L464.45,272.85L464.78,208.65L464.85,200.02L464.98,190.73L465.24,235.33L465.31,239.01L465.38,238.32L465.44,241.48L465.64,241.42L465.71,243.61L466.04,253.53L466.11,240.24L466.44,183.98L466.9,223.42L466.97,225.2L467.63,235.39L467.76,232.21L467.83,227.58L468.03,221.11L468.36,239.72L468.42,241.54L469.15,261.06L469.48,250.8L469.55,250.1L469.68,248.02L469.95,252.5L470.01,255.51L470.21,255.11L470.81,278.05L470.87,265.21L470.94,259.01L471.34,240.17L471.8,250.06L471.87,250.62L472.2,250.46L472.26,253.88L472.33,260.84L472.79,232.56L472.86,223.6L473.06,211.84L473.26,242.88L473.32,249.31L473.79,252.5L473.85,257.03L473.99,266.61L474.45,244.43L474.52,244.52L475.57,269.1L475.64,259.94L475.71,254.78L476.1,218.98L476.37,246.65L476.44,250.45L477.16,274.08L477.3,259.55L477.36,255.02L477.56,242.26L478.09,250.96L478.16,251.87L478.75,255.4L478.89,253.96L478.95,252.03L479.28,239.5L479.68,251.69L479.75,251.79L480.08,253.88L480.14,253.79L480.21,259.62L480.28,275.34L480.74,213.9L480.81,208.51L480.87,205.91L481,223.12L481.07,234.98L481.87,266.58L481.93,263.47L482,255.92L482.4,243.9L482.66,252.82L482.73,257.14L482.86,265L483.26,241.69L483.32,234.13L483.39,235.06L483.45,225.83L483.52,225.55L483.59,220.58L483.65,221.09L483.79,216.26L483.85,214.18L485.11,240.34L485.18,231.59L485.51,174.27L486.04,204.89L486.1,224.83L486.57,233.25L486.7,219.62L486.77,211.85L487.1,169.62L487.63,188.71L487.69,223.52L488.29,256.55L488.55,235.57L488.62,232.65L488.69,230.23L488.95,245.05L489.02,246.3L489.35,244.67L489.88,250.87L489.94,250.7L490.01,250.65L490.34,244.2L490.8,246.44L490.87,246.75L491.27,243.85L491.33,244.26L491.4,250.9L491.47,260.39L491.86,230.77L492,233.81L492.06,236.5L492.39,241.55L492.73,233.52L492.79,233.26L493.06,244.99L493.25,240.02L493.32,233.91L493.52,223.22L493.98,235.55L494.05,235.82L494.51,233.95L494.58,238.4L494.65,235.66L494.71,230.77L495.04,197.77L495.64,206.2L495.7,224.51L495.9,225.9L495.97,226.64L496.17,231.63L496.23,214.01L496.37,202.46L496.5,222.9L496.83,217.49L496.9,222.26L497.89,275.65L497.96,270.14L498.35,264.34L498.68,270.13L498.75,271.91L498.82,272.33L498.88,257.78L499.02,257.31L499.28,259.47L499.35,260.38L499.41,262.06L499.88,255.83L499.94,255.77L500.54,264.98L500.61,266.62L500.94,271.51L501,272.98L501.53,257.14L501.86,264.59L501.93,265.49L502.53,277.3L502.59,313.96L503.12,268.43L503.52,276.87L503.58,277.24L503.65,258.76L504.18,290.82L504.31,271.53L504.38,265.88L504.71,249.63L505.24,253.9L505.31,254.23L505.64,252.72L505.7,257.53L505.77,269.57L506.1,233.16L506.56,252.77L506.63,255.03L506.7,255.72L506.76,251.39L506.83,244.24L507.23,253.26L507.29,259.04L507.36,271.8L507.82,247.56L507.96,252.2L508.02,253.12L508.88,261.67L508.95,276.67L509.01,278.33L509.15,263.11L509.21,258.53L509.28,256.91L509.74,261.09L509.81,263.98L509.94,267.43L510.01,256.45L510.41,258.08L510.47,258.91L510.6,284.17L511.27,272.83L511.33,256.94L511.4,256.71L511.6,258.35L511.66,258.54L512.13,261.67L512.33,258.26L512.39,257.18L512.66,254.96L513.12,256.64L513.19,257.01L513.58,255.9L513.65,261.46L513.72,289.72L514.38,230.65L514.58,258.82L514.64,262.2L514.78,255.87L515.37,299.03L515.57,275.06L515.64,271.07L515.77,265.01L516.1,278.96L516.17,281.29L516.3,287.26L516.36,264.86L516.63,267.38L516.7,267.81L516.83,273.6L516.89,299.28L516.96,302.51L517.16,279.65L517.23,275.89L517.82,276.87L517.95,259.24L518.29,260.78L518.35,261.2L518.48,262.25L518.88,259.22L518.95,259.33L519.01,259.14L519.21,260.73L519.28,260.94L520.01,271.59L520.07,304.96L520.6,264.75L520.93,279.69L521,282.11L521.07,282.41L521.13,260.66L521.6,265.01L521.66,293.94L522.39,310.69L522.46,272.74L523.19,302.96L523.45,290.51L523.52,284.97L523.78,275.74L524.05,288.61L524.11,291.48L524.24,292.41L524.38,289.55L524.44,287.28L524.77,293.5L524.84,330.67L524.91,333.95L525.04,312.91L525.11,305.75L525.9,272.35L526.17,279.28L526.23,280.47L526.36,290.91L526.43,328.89L526.5,336.49L526.83,292.72L526.89,287.27L527.36,305.74L527.42,305.53L527.49,273.51L527.95,293.45L528.02,325.01L528.09,331.66L528.28,286.53L528.35,281.05L528.55,271.55L528.81,289.54L528.88,294.3L529.01,300.97L529.08,271.59L529.34,277.58L529.41,278.77L529.48,277.68L529.54,282.1L529.61,307.16L529.67,306.75L529.74,294.51L530.8,259.19L530.87,259.2L531.07,257.94L531.13,262.33L531.2,282.37L531.4,267.42L531.99,273.09L532.06,273.21L532.12,275.55L532.26,259.24L532.46,260.88L532.52,261.35L532.72,262.43L532.79,288.09L532.85,295.84L533.25,281.82L533.52,288.75L533.58,262.25L533.85,268.1L533.91,271.22L534.11,276.98L534.57,269.13L534.64,267.01L534.91,261.06L535.44,264.06L535.5,264.49L535.57,263.86L535.77,265.64L535.83,265.34L535.9,272.48L535.97,310.13L536.5,268.3L536.63,273.88L536.69,276.85L536.96,289.54L537.02,264.4L537.16,261.97L537.42,267.12L537.49,273.78L537.62,304.45L538.08,262.46L538.22,271.12L538.28,274.6L538.48,286.9L538.68,263.34L538.88,264.41L538.95,264.83L539.14,293.89L539.34,275.81L539.41,269.53L540.27,256.53L540.34,256.57L540.4,256.83L540.53,257.21L540.6,256.97L540.67,261.87L540.73,279.26L541.26,253.18L541.33,254.14L541.4,255.97L541.73,264.56L541.79,255.61L542.12,258.29L542.19,258.49L542.39,284.09L542.98,275.59L543.05,277.33L543.32,285.85L543.38,264.07L543.51,265.08L543.58,265.08L543.85,273.22L543.91,302.25L543.98,311.97L544.31,288.35L544.57,293.61L544.64,296.93L544.71,267.32L545.37,283.54L545.43,283.83L545.5,286.74L545.77,270.84L545.83,267.09L546.03,262.48L546.23,271.65L546.3,274.59L547.02,291.44L547.09,328.89L547.16,332.37L547.22,312.19L547.29,301.01L547.62,275.82L548.02,302.75L548.08,303.38L548.15,270.95L548.75,321.37L548.81,303.72L548.88,291.73L549.74,262.04L549.8,262.24L549.87,262.45L550.14,264.21L550.2,269.43L550.33,297.03L550.93,274.58L551,276.34L551.2,281.33L551.33,262.47L551.39,263.61L551.46,263.77L551.73,265.11L551.79,270.05L551.92,296.92L552.52,276.53L552.59,280.27L552.92,273.26L553.51,325.71L553.58,313.25L553.65,306.09L553.98,285.67L554.37,302.09L554.44,303.01L554.51,272.96L555.1,337.24L555.17,322.66L555.9,272.62L556.16,277.22L556.23,278.95L556.63,285.91L556.89,281.87L556.96,279.39L557.82,294.61L557.88,295.84L558.08,300.22L558.15,308.02L558.28,358.39L558.74,292.39L558.88,299.11L558.94,302.57L559.21,319.54L559.27,280.22L559.8,339.7L559.87,351.79L560.4,292.76L560.66,316.66L560.73,323.53L560.8,326.78L560.86,285.3L561.46,355.62L561.59,325.79L561.66,313.52L562.25,315.91L562.52,272.73L562.78,274.28L562.85,273.23L562.98,305.72L563.31,284.46L563.38,283.69L564.04,262.7L564.51,268.8L564.57,294.56L564.64,295.55L564.7,287.94L564.77,283.96L565.63,262.1L565.96,266.54L566.03,269.5L566.23,319.16L566.49,292.69L566.56,288.52L566.89,297.25L566.96,267.67L567.42,276.74L567.48,276.81L567.82,282.77L567.95,274.63L568.01,271.42L568.28,263.41L568.54,273.56L568.61,276.37L569.34,292.21L569.47,284.43L569.54,278.35L569.87,262.96L570.27,275.88L570.33,277.3L570.46,278.44L570.8,274.64L570.86,284.63L570.99,326.14L571.59,281.98L571.66,282.51L571.92,287.76L571.99,263.02L572.45,274.42L572.52,305.52L572.58,305.99L572.65,295.72L573.05,282.7L573.38,293.98L573.44,296.41L573.51,295.83L573.58,268.72L574.04,278.12L574.11,307.43L574.17,312.03L574.5,288.42L574.57,284.35L574.64,282.59L574.84,294L574.9,297.36L575.1,305.5L575.17,274.56L575.76,348.36L575.89,315.21L575.96,305.56L576.23,289.98L576.62,313.91L576.69,316.52L576.76,282.39L577.35,350.23L577.42,338.21L578.61,265.42L578.68,265.06L578.87,268L579.07,266.26L579.14,265.63L579.34,264.62L579.67,267.31L579.74,268.28L580,279.27" style="vector-effect: non-scaling-stroke; fill: none; stroke: rgb(99, 110, 250); stroke-opacity: 1; stroke-width: 2px; opacity: 1;"/></g><g class="points"/><g class="text"/></g></g></g><g class="overplot"/><path class="xlines-above crisp" d="M0,0" style="fill: none;"/><path class="ylines-above crisp" d="M0,0" style="fill: none;"/><g class="overlines-above"/><g class="xaxislayer-above"><g class="xtick"><text text-anchor="middle" x="0" y="457" transform="translate(100,0)" style="font-family: 'Open Sans', verdana, arial, sans-serif; font-size: 16px; fill: rgb(42, 63, 95); fill-opacity: 1; white-space: pre; opacity: 1;">Jan 2017</text></g><g class="xtick"><text text-anchor="middle" x="0" y="457" style="font-family: 'Open Sans', verdana, arial, sans-serif; font-size: 16px; fill: rgb(42, 63, 95); fill-opacity: 1; white-space: pre; opacity: 1;" transform="translate(193.76,0)">Mar 2017</text></g><g class="xtick"><text text-anchor="middle" x="0" y="457" style="font-family: 'Open Sans', verdana, arial, sans-serif; font-size: 16px; fill: rgb(42, 63, 95); fill-opacity: 1; white-space: pre; opacity: 1;" transform="translate(290.71000000000004,0)">May 2017</text></g><g class="xtick"><text text-anchor="middle" x="0" y="457" style="font-family: 'Open Sans', verdana, arial, sans-serif; font-size: 16px; fill: rgb(42, 63, 95); fill-opacity: 1; white-space: pre; opacity: 1;" transform="translate(387.65,0)">Jul 2017</text></g><g class="xtick"><text text-anchor="middle" x="0" y="457" style="font-family: 'Open Sans', verdana, arial, sans-serif; font-size: 16px; fill: rgb(42, 63, 95); fill-opacity: 1; white-space: pre; opacity: 1;" transform="translate(486.18,0)">Sep 2017</text></g><g class="xtick"><text text-anchor="middle" x="0" y="457" style="font-family: 'Open Sans', verdana, arial, sans-serif; font-size: 16px; fill: rgb(42, 63, 95); fill-opacity: 1; white-space: pre; opacity: 1;" transform="translate(583.12,0)">Nov 2017</text></g></g><g class="yaxislayer-above"><g class="ytick"><text text-anchor="end" x="99" y="5.6" transform="translate(0,410.35)" style="font-family: 'Open Sans', verdana, arial, sans-serif; font-size: 16px; fill: rgb(42, 63, 95); fill-opacity: 1; white-space: pre; opacity: 1;">4.0e+6</text></g><g class="ytick"><text text-anchor="end" x="99" y="5.6" style="font-family: 'Open Sans', verdana, arial, sans-serif; font-size: 16px; fill: rgb(42, 63, 95); fill-opacity: 1; white-space: pre; opacity: 1;" transform="translate(0,349.97)">2.0e+6</text></g><g class="ytick"><text text-anchor="end" x="99" y="5.6" style="font-family: 'Open Sans', verdana, arial, sans-serif; font-size: 16px; fill: rgb(42, 63, 95); fill-opacity: 1; white-space: pre; opacity: 1;" transform="translate(0,289.59000000000003)">0.0e+0</text></g><g class="ytick"><text text-anchor="end" x="99" y="5.6" style="font-family: 'Open Sans', verdana, arial, sans-serif; font-size: 16px; fill: rgb(42, 63, 95); fill-opacity: 1; white-space: pre; opacity: 1;" transform="translate(0,229.21)">2.0e+6</text></g><g class="ytick"><text text-anchor="end" x="99" y="5.6" style="font-family: 'Open Sans', verdana, arial, sans-serif; font-size: 16px; fill: rgb(42, 63, 95); fill-opacity: 1; white-space: pre; opacity: 1;" transform="translate(0,168.84)">4.0e+6</text></g><g class="ytick"><text text-anchor="end" x="99" y="5.6" style="font-family: 'Open Sans', verdana, arial, sans-serif; font-size: 16px; fill: rgb(42, 63, 95); fill-opacity: 1; white-space: pre; opacity: 1;" transform="translate(0,108.46)">6.0e+6</text></g><g class="ytick"><text text-anchor="end" x="99" y="5.6" style="font-family: 'Open Sans', verdana, arial, sans-serif; font-size: 16px; fill: rgb(42, 63, 95); fill-opacity: 1; white-space: pre; opacity: 1;" transform="translate(0,48.08)">8.0e+6</text></g></g><g class="overaxes-above"/></g></g><g class="polarlayer"/><g class="ternarylayer"/><g class="geolayer"/><g class="funnelarealayer"/><g class="pielayer"/><g class="iciclelayer"/><g class="treemaplayer"/><g class="sunburstlayer"/><g class="glimages"/><defs id="topdefs-cfecb4"><g class="clips"/></defs><g class="layer-above"><g class="imagelayer"/><g class="shapelayer"/></g><g class="infolayer"><g class="g-gtitle"/><g class="g-xtitle"/><g class="g-ytitle" transform="translate(5.0341796875,0)"><text class="ytitle" transform="rotate(-90,11.965625000000003,240)" x="11.965625000000003" y="240" text-anchor="middle" style="font-family: 'Open Sans', verdana, arial, sans-serif; font-size: 19px; fill: rgb(42, 63, 95); opacity: 1; font-weight: normal; white-space: pre;">QToGround (W)</text></g></g></svg>